<svg width="15" height="16" viewBox="0 0 15 16" fill="none" xmlns="http://www.w3.org/2000/svg">
<mask id="mask0_1279_985" style="mask-type:alpha" maskUnits="userSpaceOnUse" x="0" y="0" width="15" height="16">
<rect y="0.5" width="15" height="15" fill="#D9D9D9"/>
</mask>
<g mask="url(#mask0_1279_985)">
<path d="M5.036 10.5H12.1514C12.1994 10.5 12.2435 10.48 12.2836 10.4399C12.3236 10.3998 12.3437 10.3558 12.3437 10.3077V4.25H4.84367V10.3077C4.84367 10.3558 4.86371 10.3998 4.90378 10.4399C4.94384 10.48 4.98792 10.5 5.036 10.5ZM5.036 11.4375C4.72029 11.4375 4.45307 11.3281 4.23433 11.1094C4.01558 10.8906 3.9062 10.6234 3.9062 10.3077V3.19233C3.9062 2.87662 4.01558 2.60939 4.23433 2.39064C4.45307 2.17189 4.72029 2.06252 5.036 2.06252H12.1514C12.4671 2.06252 12.7343 2.17189 12.953 2.39064C13.1718 2.60939 13.2812 2.87662 13.2812 3.19233V10.3077C13.2812 10.6234 13.1718 10.8906 12.953 11.1094C12.7343 11.3281 12.4671 11.4375 12.1514 11.4375H5.036ZM2.84852 13.625C2.53282 13.625 2.26559 13.5156 2.04684 13.2968C1.82809 13.0781 1.71872 12.8109 1.71872 12.4952V4.91106C1.71872 4.77805 1.76359 4.66668 1.85333 4.57694C1.94308 4.4872 2.05445 4.44233 2.18745 4.44233C2.32046 4.44233 2.43184 4.4872 2.52159 4.57694C2.61133 4.66668 2.6562 4.77805 2.6562 4.91106V12.4952C2.6562 12.5432 2.67624 12.5873 2.7163 12.6274C2.75637 12.6674 2.80044 12.6875 2.84852 12.6875H10.4326C10.5656 12.6875 10.677 12.7324 10.7668 12.8221C10.8565 12.9118 10.9014 13.0232 10.9014 13.1562C10.9014 13.2892 10.8565 13.4006 10.7668 13.4903C10.677 13.5801 10.5656 13.625 10.4326 13.625H2.84852Z" fill="#71767F"/>
</g>
</svg>
