<svg width="41" height="40" viewBox="0 0 41 40" fill="none" xmlns="http://www.w3.org/2000/svg">
<path d="M34.1171 12.7434C33.6299 12.7434 33.2217 12.5787 32.8927 12.2493C32.5637 11.9199 32.3991 11.5117 32.3991 11.0247V8.1601H29.5345C29.0475 8.1601 28.6393 7.99533 28.3099 7.66578C27.9805 7.3362 27.8158 6.92783 27.8158 6.44066C27.8158 5.95345 27.9805 5.54532 28.3099 5.21628C28.6393 4.88723 29.0475 4.72271 29.5345 4.72271H32.3991V1.85807C32.3991 1.37109 32.5639 0.962886 32.8935 0.633459C33.223 0.30407 33.6314 0.139378 34.1186 0.139378C34.6058 0.139378 35.0139 0.30407 35.343 0.633459C35.672 0.962886 35.8365 1.37109 35.8365 1.85807V4.72271H38.7012C39.1881 4.72271 39.5963 4.88748 39.9258 5.21702C40.2552 5.5466 40.4199 5.95498 40.4199 6.44215C40.4199 6.92936 40.2552 7.33748 39.9258 7.66653C39.5963 7.99557 39.1881 8.1601 38.7012 8.1601H35.8365V11.0247C35.8365 11.5117 35.6717 11.9199 35.3422 12.2493C35.0126 12.5787 34.6043 12.7434 34.1171 12.7434ZM10.0995 31.3853H30.1955C30.6024 31.3853 30.9075 31.1972 31.111 30.8212C31.3145 30.4451 31.2854 30.0808 31.024 29.7282L25.5593 22.4082C25.3448 22.1321 25.0686 21.994 24.7308 21.994C24.3929 21.994 24.1162 22.134 23.9007 22.4139L18.2965 29.7106L14.5417 24.8982C14.3273 24.6367 14.0548 24.506 13.7242 24.506C13.3937 24.506 13.1212 24.6441 12.9067 24.9203L9.293 29.7282C9.01682 30.0808 8.98046 30.4451 9.18392 30.8212C9.38738 31.1972 9.69258 31.3853 10.0995 31.3853ZM4.72285 39.979C3.58362 39.979 2.60839 39.5734 1.79714 38.7621C0.985886 37.9508 0.580261 36.9756 0.580261 35.8364V5.16346C0.580261 4.02423 0.985886 3.04899 1.79714 2.23774C2.60839 1.42645 3.58362 1.02081 4.72285 1.02081H22.924C23.4109 1.02081 23.8191 1.18552 24.1485 1.51495C24.4779 1.84437 24.6426 2.25258 24.6426 2.73956V9.26193C24.6426 9.84883 24.8411 10.3408 25.2381 10.7378C25.6351 11.1348 26.1271 11.3333 26.714 11.3333H29.226V13.8453C29.226 14.4322 29.4245 14.9241 29.8215 15.3211C30.2185 15.7181 30.7104 15.9166 31.2973 15.9166H37.8197C38.3067 15.9166 38.7149 16.0813 39.0443 16.4107C39.3737 16.7402 39.5384 17.1483 39.5384 17.6353V35.8364C39.5384 36.9756 39.1328 37.9508 38.3215 38.7621C37.5102 39.5734 36.535 39.979 35.3958 39.979H4.72285Z" fill="#D9D9E8"/>
</svg>
