<svg width="45" height="29" viewBox="0 0 45 29" fill="none" xmlns="http://www.w3.org/2000/svg">
<g clip-path="url(#clip0_953_32)">
<path d="M40.9701 0H4.02996C3.87611 0 3.72198 0 3.56841 0.000897167C3.43859 0.00182152 3.30907 0.00326242 3.17955 0.00679672C2.89708 0.0144362 2.61219 0.0311018 2.33325 0.0812344C2.04986 0.132237 1.78614 0.215429 1.52887 0.346415C1.27595 0.475036 1.0444 0.643269 0.843741 0.844016C0.64299 1.04476 0.474758 1.27593 0.346164 1.52913C0.21515 1.78639 0.131904 2.05019 0.081255 2.3338C0.0308533 2.61282 0.0140763 2.89766 0.00646395 3.17983C0.00298403 3.30935 0.00149147 3.43887 0.00064596 3.56836C-0.000251207 3.72226 4.78489e-05 3.87606 4.78489e-05 4.03024V24.7787C4.78489e-05 24.9328 -0.000251207 25.0864 0.00064596 25.2406C0.00149147 25.3701 0.00298403 25.4996 0.00646395 25.6291C0.0140763 25.911 0.0308533 26.1959 0.081255 26.4748C0.131904 26.7585 0.21515 27.0222 0.346164 27.2795C0.474758 27.5327 0.64299 27.7642 0.843741 27.9646C1.0444 28.1657 1.27595 28.3339 1.52887 28.4622C1.78614 28.5935 2.04986 28.6767 2.33325 28.7277C2.61219 28.7775 2.89708 28.7945 3.17955 28.8021C3.30907 28.8051 3.43859 28.8068 3.56841 28.8074C3.72198 28.8086 3.87611 28.8086 4.02996 28.8086H40.9701C41.1237 28.8086 41.2778 28.8086 41.4313 28.8074C41.5609 28.8068 41.6904 28.8051 41.8205 28.8021C42.1024 28.7945 42.3872 28.7775 42.6668 28.7277C42.9498 28.6767 43.2136 28.5935 43.4709 28.4622C43.7241 28.3339 43.955 28.1657 44.156 27.9646C44.3565 27.7642 44.5247 27.5327 44.6536 27.2795C44.7849 27.0222 44.8681 26.7585 44.9185 26.4748C44.9689 26.1959 44.9853 25.911 44.9929 25.6291C44.9965 25.4996 44.9982 25.3701 44.9988 25.2406C45 25.0864 45 24.9328 45 24.7787V4.03024C45 3.87606 45 3.72226 44.9988 3.56836C44.9982 3.43887 44.9965 3.30935 44.9929 3.17983C44.9853 2.89766 44.9689 2.61282 44.9185 2.3338C44.8681 2.05019 44.7849 1.78639 44.6536 1.52913C44.5247 1.27593 44.3565 1.04476 44.156 0.844016C43.955 0.643269 43.7241 0.475036 43.4709 0.346415C43.2136 0.215429 42.9498 0.132237 42.6668 0.0812344C42.3872 0.0311018 42.1024 0.0144362 41.8205 0.00679672C41.6904 0.00326242 41.5609 0.00182152 41.4313 0.000897167C41.2778 0 41.1237 0 40.9701 0Z" fill="black"/>
<path d="M40.9701 0.960205L41.4245 0.961075C41.5476 0.961945 41.6707 0.963277 41.7945 0.966648C42.0098 0.972466 42.2617 0.98413 42.4965 1.02621C42.7006 1.06297 42.8718 1.11887 43.036 1.20249C43.1982 1.2849 43.3468 1.39288 43.4765 1.52243C43.6067 1.65284 43.7149 1.80167 43.7983 1.96563C43.8815 2.12862 43.937 2.29897 43.9736 2.50456C44.0156 2.73679 44.0272 2.98935 44.0331 3.206C44.0364 3.32829 44.038 3.45058 44.0386 3.57577C44.0398 3.72718 44.0398 3.8785 44.0398 4.0302V24.7786C44.0398 24.9303 44.0398 25.0814 44.0386 25.236C44.038 25.3583 44.0364 25.4806 44.033 25.6031C44.0272 25.8194 44.0156 26.0718 43.9731 26.3068C43.937 26.5096 43.8815 26.6799 43.7979 26.8437C43.7147 27.0073 43.6067 27.156 43.477 27.2856C43.3466 27.416 43.1985 27.5237 43.0344 27.6069C42.8714 27.6901 42.7005 27.7459 42.4984 27.7823C42.2589 27.825 41.9964 27.8367 41.7988 27.8421C41.6744 27.8449 41.5507 27.8466 41.4239 27.8472C41.2728 27.8483 41.1212 27.8483 40.9701 27.8483H4.02996C4.02795 27.8483 4.02599 27.8483 4.02395 27.8483C3.87459 27.8483 3.72492 27.8483 3.57284 27.8472C3.44884 27.8466 3.32511 27.8449 3.20549 27.8422C3.00333 27.8367 2.74073 27.825 2.50314 27.7826C2.29933 27.7459 2.12846 27.6901 1.96327 27.6058C1.80072 27.5234 1.65274 27.4158 1.52221 27.2851C1.3927 27.1558 1.28506 27.0076 1.20184 26.8438C1.11854 26.6801 1.06281 26.5092 1.02617 26.3041C0.983806 26.0695 0.97217 25.8181 0.966355 25.6033C0.963035 25.4802 0.961649 25.3572 0.96086 25.235L0.960262 24.8739L0.96029 24.7786V4.0302L0.960262 3.93488L0.960833 3.57463C0.961649 3.45161 0.963035 3.32862 0.966355 3.2057C0.97217 2.99063 0.983806 2.7391 1.02652 2.50263C1.06284 2.29929 1.11854 2.1284 1.20228 1.96394C1.28485 1.80139 1.39267 1.65301 1.52287 1.52284C1.65255 1.3931 1.80102 1.28525 1.9646 1.20206C2.12802 1.11884 2.29922 1.06297 2.50304 1.0263C2.73788 0.984102 2.98993 0.972466 3.20579 0.966621C3.32884 0.963277 3.45188 0.961945 3.57401 0.961102L4.02996 0.960205H40.9701Z" fill="white"/>
<path d="M12.2847 9.68944C12.67 9.20751 12.9315 8.56042 12.8625 7.89917C12.2985 7.92722 11.6102 8.27128 11.2117 8.75359C10.8539 9.16661 10.5372 9.8408 10.6198 10.4743C11.2529 10.5292 11.8855 10.1578 12.2847 9.68944Z" fill="black"/>
<path d="M12.8553 10.5979C11.9358 10.5431 11.154 11.1198 10.7149 11.1198C10.2756 11.1198 9.60319 10.6255 8.87592 10.6388C7.92933 10.6527 7.05101 11.1879 6.57066 12.0392C5.58266 13.742 6.30993 16.268 7.27071 17.6549C7.73728 18.341 8.29959 19.0965 9.04051 19.0694C9.74055 19.0419 10.0149 18.6161 10.8659 18.6161C11.7162 18.6161 11.9634 19.0694 12.7044 19.0557C13.4729 19.0419 13.9533 18.3692 14.4199 17.6824C14.9551 16.9002 15.1742 16.145 15.188 16.1035C15.1742 16.0898 13.7062 15.5266 13.6926 13.8379C13.6787 12.4239 14.8452 11.7513 14.9001 11.7096C14.2414 10.7354 13.2121 10.6255 12.8553 10.5979Z" fill="black"/>
<path d="M20.8615 8.68433C22.86 8.68433 24.2517 10.0619 24.2517 12.0676C24.2517 14.0804 22.8314 15.4651 20.8114 15.4651H18.5987V18.984H17V8.68433L20.8615 8.68433ZM18.5987 14.1232H20.4331C21.825 14.1232 22.6172 13.3738 22.6172 12.0747C22.6172 10.7758 21.825 10.0334 20.4402 10.0334H18.5987V14.1232Z" fill="black"/>
<path d="M24.6694 16.8499C24.6694 15.5365 25.6758 14.73 27.4603 14.63L29.5158 14.5088V13.9307C29.5158 13.0955 28.9519 12.5959 28.0099 12.5959C27.1175 12.5959 26.5607 13.0241 26.4253 13.6951H24.9692C25.0548 12.3388 26.211 11.3396 28.0669 11.3396C29.887 11.3396 31.0503 12.3032 31.0503 13.8092V18.984H29.5728V17.7492H29.5373C29.102 18.5844 28.1525 19.1125 27.1676 19.1125C25.6972 19.1125 24.6694 18.1989 24.6694 16.8499ZM29.5158 16.1719V15.5795L27.6671 15.6936C26.7463 15.7579 26.2254 16.1647 26.2254 16.8071C26.2254 17.4637 26.7678 17.892 27.5958 17.892C28.6735 17.892 29.5158 17.1496 29.5158 16.1719Z" fill="black"/>
<path d="M32.4453 21.7462V20.4971C32.5593 20.5256 32.8162 20.5256 32.9447 20.5256C33.6585 20.5256 34.044 20.2259 34.2794 19.455C34.2794 19.4407 34.4151 18.9982 34.4151 18.9911L31.7029 11.4751H33.3729L35.2717 17.585H35.3001L37.1989 11.4751H38.8262L36.0138 19.3764C35.3717 21.1966 34.6293 21.7819 33.0733 21.7819C32.9448 21.7819 32.5593 21.7676 32.4453 21.7462Z" fill="black"/>
</g>
<defs>
<clipPath id="clip0_953_32">
<rect width="45" height="28.8086" fill="white"/>
</clipPath>
</defs>
</svg>
