<svg width="20" height="20" viewBox="0 0 20 20" fill="none" xmlns="http://www.w3.org/2000/svg">
<circle cx="10" cy="10" r="10" fill="#212531"/>
<path d="M10.3536 10.7111L10 10.3575L9.64645 10.7111L5.92021 14.4373C5.88372 14.4738 5.83784 14.5 5.74144 14.5C5.64505 14.5 5.59917 14.4738 5.56268 14.4373C5.52619 14.4008 5.5 14.355 5.5 14.2586C5.5 14.1622 5.52619 14.1163 5.56268 14.0798L9.28891 10.3536L9.64247 10L9.28891 9.64645L5.56268 5.92021C5.52619 5.88372 5.5 5.83784 5.5 5.74144C5.5 5.64505 5.52619 5.59917 5.56268 5.56268C5.59917 5.52619 5.64505 5.5 5.74144 5.5C5.83784 5.5 5.88372 5.52619 5.92021 5.56268L9.64645 9.28891L10 9.64247L10.3536 9.28891L14.0798 5.56268C14.1163 5.52619 14.1622 5.5 14.2586 5.5C14.355 5.5 14.4008 5.52619 14.4373 5.56268C14.4738 5.59917 14.5 5.64505 14.5 5.74144C14.5 5.83784 14.4738 5.88372 14.4373 5.92021L10.7111 9.64645L10.3575 10L10.7111 10.3536L14.4373 14.0798C14.4738 14.1163 14.5 14.1622 14.5 14.2586C14.5 14.355 14.4738 14.4008 14.4373 14.4373C14.4008 14.4738 14.355 14.5 14.2586 14.5C14.1622 14.5 14.1163 14.4738 14.0798 14.4373L10.3536 10.7111Z" fill="white" stroke="white"/>
</svg>
