<svg width="18" height="18" viewBox="0 0 18 18" fill="none" xmlns="http://www.w3.org/2000/svg">
<mask id="mask0_1013_1407" style="mask-type:alpha" maskUnits="userSpaceOnUse" x="0" y="0" width="18" height="18">
<rect width="18" height="18" fill="#D9D9D9"/>
</mask>
<g mask="url(#mask0_1013_1407)">
<path d="M5.48077 15.3751C5.10674 15.3751 4.78727 15.2426 4.52237 14.9777C4.25746 14.7128 4.125 14.3933 4.125 14.0193V4.5001H3.9375C3.77789 4.5001 3.64424 4.44626 3.53655 4.33857C3.42885 4.23088 3.375 4.09723 3.375 3.93762C3.375 3.77801 3.42885 3.64436 3.53655 3.53667C3.64424 3.42897 3.77789 3.37512 3.9375 3.37512H6.74998C6.74998 3.19147 6.81464 3.03498 6.94397 2.90566C7.07329 2.77633 7.22978 2.71167 7.41343 2.71167H10.5865C10.7702 2.71167 10.9267 2.77633 11.056 2.90566C11.1853 3.03498 11.25 3.19147 11.25 3.37512H14.0625C14.2221 3.37512 14.3557 3.42897 14.4634 3.53667C14.5711 3.64436 14.625 3.77801 14.625 3.93762C14.625 4.09723 14.5711 4.23088 14.4634 4.33857C14.3557 4.44626 14.2221 4.5001 14.0625 4.5001H13.875V14.0193C13.875 14.3933 13.7425 14.7128 13.4776 14.9777C13.2127 15.2426 12.8932 15.3751 12.5192 15.3751H5.48077ZM12.75 4.5001H5.24998V14.0193C5.24998 14.0866 5.27162 14.1419 5.31489 14.1852C5.35817 14.2285 5.41346 14.2501 5.48077 14.2501H12.5192C12.5865 14.2501 12.6418 14.2285 12.6851 14.1852C12.7283 14.1419 12.75 14.0866 12.75 14.0193V4.5001ZM7.05289 12.7501H8.17787V6.0001H7.05289V12.7501ZM9.82209 12.7501H10.9471V6.0001H9.82209V12.7501Z" fill="#FF5C5C"/>
</g>
</svg>
