<svg width="15" height="15" viewBox="0 0 15 15" fill="none" xmlns="http://www.w3.org/2000/svg">
<mask id="mask0_967_532" style="mask-type:alpha" maskUnits="userSpaceOnUse" x="0" y="0" width="15" height="15">
<rect width="15" height="15" fill="#D9D9D9"/>
</mask>
<g mask="url(#mask0_967_532)">
<path d="M3.31731 12.8126C3.0016 12.8126 2.73438 12.7032 2.51562 12.4845C2.29688 12.2657 2.1875 11.9985 2.1875 11.6828V3.31742C2.1875 3.00171 2.29688 2.73448 2.51562 2.51573C2.73438 2.29698 3.0016 2.18761 3.31731 2.18761H8.72716L7.78967 3.12509H3.31731C3.26923 3.12509 3.22515 3.14512 3.18508 3.18518C3.14502 3.22526 3.12498 3.26934 3.12498 3.31742V11.6828C3.12498 11.7308 3.14502 11.7749 3.18508 11.815C3.22515 11.8551 3.26923 11.8751 3.31731 11.8751H11.6827C11.7307 11.8751 11.7748 11.8551 11.8149 11.815C11.855 11.7749 11.875 11.7308 11.875 11.6828V7.17073L12.8125 6.23326V11.6828C12.8125 11.9985 12.7031 12.2657 12.4843 12.4845C12.2656 12.7032 11.9984 12.8126 11.6827 12.8126H3.31731ZM5.9375 8.49767V7.38472C5.9375 7.23408 5.96675 7.08925 6.02525 6.95023C6.08374 6.81121 6.16427 6.69041 6.26683 6.58784L11.5998 1.25492C11.6967 1.15796 11.8033 1.08725 11.9195 1.04278C12.0356 0.998308 12.1538 0.976074 12.274 0.976074C12.3966 0.976074 12.5144 0.998308 12.6274 1.04278C12.7404 1.08725 12.8433 1.15595 12.9363 1.2489L13.7211 2.03136C13.8117 2.1283 13.8812 2.23527 13.9296 2.35226C13.9781 2.46924 14.0024 2.58782 14.0024 2.70801C14.0024 2.82821 13.9817 2.9448 13.9405 3.05778C13.8992 3.17075 13.8301 3.27571 13.7331 3.37267L8.38217 8.72362C8.27961 8.82618 8.15882 8.90832 8.0198 8.97003C7.88078 9.03173 7.73595 9.06258 7.58531 9.06258H6.50241C6.34135 9.06258 6.20694 9.00868 6.09917 8.9009C5.99139 8.79313 5.9375 8.65872 5.9375 8.49767ZM6.87498 8.12509H7.65383L11.5493 4.22964L11.1599 3.84021L10.7428 3.43878L6.87498 7.30659V8.12509Z" fill="#1C1B1F"/>
</g>
</svg>
