<svg width="24" height="24" viewBox="0 0 24 24" fill="none" xmlns="http://www.w3.org/2000/svg">
<path d="M22 12C22 6.4772 17.5228 2 12 2C6.4772 2 2 6.4772 2 12C2 16.6896 5.2288 20.6248 9.5844 21.7056V15.056H7.5224V12H9.5844V10.6832C9.5844 7.2796 11.1248 5.702 14.4664 5.702C15.1 5.702 16.1932 5.8264 16.6404 5.9504V8.7204C16.4044 8.6956 15.9944 8.6832 15.4852 8.6832C13.8456 8.6832 13.212 9.3044 13.212 10.9192V12H16.4784L15.9172 15.056H13.212V21.9268C18.1636 21.3288 22.0004 17.1128 22.0004 12H22Z" fill="#0866FF"/>
<path d="M15.9168 15.0561L16.478 12.0001H13.2116V10.9193C13.2116 9.30455 13.8452 8.68335 15.4848 8.68335C15.994 8.68335 16.404 8.69575 16.64 8.72055V5.95055C16.1928 5.82615 15.0996 5.70215 14.466 5.70215C11.1244 5.70215 9.584 7.27975 9.584 10.6833V12.0001H7.522V15.0561H9.584V21.7057C10.3576 21.8977 11.1668 22.0001 11.9996 22.0001C12.4096 22.0001 12.814 21.9749 13.2112 21.9269V15.0561H15.9164H15.9168Z" fill="white"/>
</svg>
