<svg width="24" height="24" viewBox="0 0 24 24" fill="none" xmlns="http://www.w3.org/2000/svg">
<g clip-path="url(#clip0_979_31)">
<path fill-rule="evenodd" clip-rule="evenodd" d="M11.9672 1C5.90263 1 1 5.93878 1 12.0487C1 16.9327 4.14129 21.0669 8.49908 22.5301C9.04392 22.6401 9.24349 22.2924 9.24349 21.9999C9.24349 21.7438 9.22553 20.8658 9.22553 19.951C6.17471 20.6096 5.53941 18.6339 5.53941 18.6339C5.04912 17.3534 4.32267 17.0243 4.32267 17.0243C3.32414 16.3475 4.39541 16.3475 4.39541 16.3475C5.50304 16.4207 6.08425 17.4816 6.08425 17.4816C7.06459 19.1644 8.64433 18.6889 9.27986 18.3962C9.37055 17.6827 9.66127 17.1889 9.96994 16.9145C7.53669 16.6584 4.97661 15.7072 4.97661 11.4632C4.97661 10.2559 5.41212 9.26818 6.1022 8.49998C5.99333 8.22565 5.61192 7.09131 6.21131 5.57308C6.21131 5.57308 7.13733 5.28035 9.22531 6.7072C10.1192 6.46535 11.0411 6.34232 11.9672 6.34129C12.8932 6.34129 13.8372 6.46947 14.7089 6.7072C16.7971 5.28035 17.7231 5.57308 17.7231 5.57308C18.3225 7.09131 17.9409 8.22565 17.832 8.49998C18.5403 9.26818 18.9578 10.2559 18.9578 11.4632C18.9578 15.7072 16.3978 16.64 13.9463 16.9145C14.3459 17.262 14.6907 17.9205 14.6907 18.9632C14.6907 20.4449 14.6728 21.634 14.6728 21.9997C14.6728 22.2924 14.8726 22.6401 15.4172 22.5304C19.775 21.0667 22.9163 16.9327 22.9163 12.0487C22.9342 5.93878 18.0136 1 11.9672 1Z" fill="#24292F"/>
</g>
<defs>
<clipPath id="clip0_979_31">
<rect width="22" height="21.551" fill="white" transform="translate(1 1)"/>
</clipPath>
</defs>
</svg>
