<svg width="80" height="80" viewBox="0 0 80 80" fill="none" xmlns="http://www.w3.org/2000/svg">
<rect x="1" y="1" width="78" height="78" rx="4" fill="white"/>
<rect x="1" y="1" width="78" height="78" rx="4" stroke="#D9D9E8" stroke-width="2" stroke-dasharray="2 4"/>
<mask id="mask0_1371_376" style="mask-type:alpha" maskUnits="userSpaceOnUse" x="20" y="20" width="40" height="40">
<rect x="20" y="20" width="40" height="40" fill="#D9D9D9"/>
</mask>
<g mask="url(#mask0_1371_376)">
<path d="M49.9033 34.3591C49.549 34.3591 49.2521 34.2394 49.0128 33.9998C48.7735 33.7602 48.6539 33.4634 48.6539 33.1092V31.0258H46.5705C46.2163 31.0258 45.9195 30.906 45.6799 30.6663C45.4403 30.4266 45.3205 30.1296 45.3205 29.7753C45.3205 29.421 45.4403 29.1242 45.6799 28.8849C45.9195 28.6456 46.2163 28.5259 46.5705 28.5259H48.6539V26.4425C48.6539 26.0884 48.7737 25.7915 49.0134 25.5519C49.2531 25.3123 49.5501 25.1926 49.9044 25.1926C50.2587 25.1926 50.5555 25.3123 50.7948 25.5519C51.0341 25.7915 51.1538 26.0884 51.1538 26.4425V28.5259H53.2372C53.5913 28.5259 53.8882 28.6457 54.1278 28.8854C54.3673 29.1251 54.4871 29.4221 54.4871 29.7764C54.4871 30.1307 54.3673 30.4276 54.1278 30.6669C53.8882 30.9062 53.5913 31.0258 53.2372 31.0258H51.1538V33.1092C51.1538 33.4634 51.034 33.7602 50.7943 33.9998C50.5546 34.2394 50.2576 34.3591 49.9033 34.3591ZM32.436 47.9169H47.0512C47.3471 47.9169 47.5691 47.7801 47.717 47.5066C47.865 47.2331 47.8439 46.9682 47.6538 46.7117L43.6794 41.3881C43.5234 41.1872 43.3226 41.0868 43.0769 41.0868C42.8312 41.0868 42.6299 41.1886 42.4732 41.3922L38.3974 46.6989L35.6667 43.199C35.5107 43.0088 35.3125 42.9137 35.0721 42.9137C34.8317 42.9137 34.6336 43.0142 34.4776 43.215L31.8494 46.7117C31.6486 46.9682 31.6221 47.2331 31.7701 47.5066C31.9181 47.7801 32.14 47.9169 32.436 47.9169ZM28.5257 54.1669C27.6971 54.1669 26.9879 53.8718 26.3979 53.2818C25.8079 52.6918 25.5129 51.9826 25.5129 51.154V28.8464C25.5129 28.0179 25.8079 27.3086 26.3979 26.7186C26.9879 26.1286 27.6971 25.8336 28.5257 25.8336H41.7628C42.117 25.8336 42.4139 25.9534 42.6534 26.193C42.893 26.4326 43.0128 26.7294 43.0128 27.0836V31.8271C43.0128 32.254 43.1572 32.6118 43.4459 32.9005C43.7346 33.1892 44.0924 33.3336 44.5192 33.3336H46.3461V35.1605C46.3461 35.5873 46.4905 35.9451 46.7792 36.2338C47.0679 36.5225 47.4257 36.6669 47.8525 36.6669H52.5961C52.9503 36.6669 53.2471 36.7867 53.4867 37.0263C53.7263 37.2659 53.8461 37.5627 53.8461 37.9169V51.154C53.8461 51.9826 53.5511 52.6918 52.961 53.2818C52.371 53.8718 51.6618 54.1669 50.8333 54.1669H28.5257Z" fill="#D9D9E8"/>
</g>
</svg>
