<svg width="18" height="18" viewBox="0 0 18 18" fill="none" xmlns="http://www.w3.org/2000/svg">
<mask id="mask0_990_1992" style="mask-type:alpha" maskUnits="userSpaceOnUse" x="0" y="0" width="18" height="18">
<rect width="18" height="18" fill="#D9D9D9"/>
</mask>
<g mask="url(#mask0_990_1992)">
<path d="M3.79807 15.375C3.47572 15.375 3.19963 15.26 2.96977 15.0302C2.73992 14.8003 2.625 14.5242 2.625 14.2019V3.79808C2.625 3.47573 2.73992 3.19963 2.96977 2.96978C3.19963 2.73992 3.47572 2.625 3.79807 2.625H8.52836C8.66209 2.625 8.77404 2.67031 8.86423 2.76094C8.95441 2.85155 8.99949 2.96404 8.99949 3.09842C8.99949 3.23279 8.95441 3.34453 8.86423 3.43363C8.77404 3.52273 8.66209 3.56728 8.52836 3.56728H3.79807C3.74037 3.56728 3.68749 3.59133 3.63941 3.63941C3.59132 3.68749 3.56728 3.74038 3.56728 3.79808V14.2019C3.56728 14.2596 3.59132 14.3125 3.63941 14.3606C3.68749 14.4086 3.74037 14.4327 3.79807 14.4327H8.52836C8.66209 14.4327 8.77404 14.478 8.86423 14.5686C8.95441 14.6592 8.99949 14.7717 8.99949 14.9061C8.99949 15.0405 8.95441 15.1522 8.86423 15.2413C8.77404 15.3304 8.66209 15.375 8.52836 15.375H3.79807ZM13.5582 9.47111H7.29324C7.15952 9.47111 7.04756 9.42581 6.95738 9.33519C6.86719 9.24458 6.82209 9.13209 6.82209 8.99771C6.82209 8.86334 6.86719 8.7516 6.95738 8.6625C7.04756 8.5734 7.15952 8.52885 7.29324 8.52885H13.5428L12.0447 7.03076C11.9543 6.94038 11.9092 6.83229 11.9094 6.7065C11.9095 6.5807 11.9572 6.46892 12.0524 6.37116C12.1476 6.27341 12.2592 6.22469 12.3871 6.22502C12.5151 6.22534 12.6285 6.27278 12.7274 6.36731L14.9567 8.59661C15.0737 8.71681 15.1322 8.85471 15.1322 9.01029C15.1322 9.16589 15.0737 9.30204 14.9567 9.41873L12.7351 11.6403C12.647 11.7333 12.5393 11.7789 12.4121 11.7772C12.2848 11.7755 12.17 11.7261 12.0677 11.6288C11.9758 11.531 11.9305 11.4185 11.9317 11.2913C11.933 11.1641 11.9813 11.0529 12.0764 10.9577L13.5582 9.47111Z" fill="#1C1B1F"/>
</g>
</svg>
