<svg width="290" height="62" viewBox="0 0 290 62" fill="none" xmlns="http://www.w3.org/2000/svg">
<g clip-path="url(#clip0_1453_61)">
<path d="M52.8088 39.2784C52.8231 41.2589 51.2925 42.476 49.3917 41.9791L25.9274 35.8576C24.0338 35.3607 22.4676 33.337 22.4462 31.3565L22.1971 2.80868C22.1828 0.828199 23.7134 -0.3889 25.6142 0.108022L49.0785 6.22952C50.9721 6.72644 52.5383 8.75014 52.5597 10.7306L52.8088 39.2784Z" fill="white"/>
<path d="M41.397 49.1089C41.4184 51.0894 39.8949 52.2921 38.0013 51.7879L15.3842 45.7169C13.4905 45.2055 11.9243 43.1746 11.8959 41.1941L11.5399 12.6463C11.5186 10.6658 13.042 9.46315 14.9357 9.96728L37.5528 16.0384C39.4464 16.5497 41.0126 18.5806 41.0411 20.5611L41.397 49.1089Z" fill="white"/>
<path d="M30.6046 59.1913C30.6189 61.1718 29.0883 62.3889 27.1875 61.892L3.72324 55.7705C1.82959 55.2736 0.263403 53.2499 0.242046 51.2694L-1.70556e-07 22.7216C-0.0142382 20.7411 1.51635 19.524 3.41712 20.0209L26.8814 26.1424C28.775 26.6393 30.3412 28.663 30.3626 30.6435L30.6117 59.1913H30.6046Z" fill="white"/>
<g style="mix-blend-mode:multiply">
<path d="M52.7875 37.1179C52.8159 40.2867 50.3528 42.2312 47.3201 41.439L27.9919 36.3978C24.9592 35.6056 22.4534 32.3648 22.4249 29.196L22.2113 4.96925C22.1828 1.80047 24.646 -0.144006 27.6787 0.648188L47.0068 5.68942C50.0395 6.48162 52.5454 9.72241 52.5739 12.8912L52.7875 37.1179Z" fill="#C770E6"/>
</g>
<g style="mix-blend-mode:multiply">
<path d="M41.3757 46.9484C41.4184 50.1171 38.9695 52.0472 35.9439 51.2334L17.4558 46.2714C14.4302 45.4576 11.9172 42.2024 11.8816 39.0336L11.5826 14.8069C11.5399 11.6381 13.9889 9.70803 17.0144 10.5218L35.5025 15.4838C38.5281 16.2976 41.0411 19.5528 41.0767 22.7216L41.3757 46.9484Z" fill="#7E6BE0"/>
</g>
<g style="mix-blend-mode:multiply">
<path d="M30.5833 57.0308C30.6117 60.1996 28.1486 62.1441 25.1159 61.3519L5.78776 56.3107C2.75506 55.5185 0.249165 52.2777 0.220689 49.1089L0.0213569 24.8822C-0.00711916 21.7134 2.45606 19.7689 5.48876 20.5611L24.8169 25.6023C27.8496 26.3945 30.3555 29.6353 30.3839 32.8041L30.5975 57.0308H30.5833Z" fill="#3866DA"/>
</g>
<path d="M84.4599 37.3196H73.696L71.5176 42.7642H64.6833L76.1734 13.9427H82.1961L93.4299 42.7642H86.5956L84.4599 37.3196ZM82.6659 32.2208L79.1634 22.5416L75.6181 32.2208H82.6659Z" fill="#1B222D"/>
<path d="M102.485 52.6594H96.3345V23.4922H102.485V25.7824C104.493 23.1465 106.97 22.8441 108.423 22.8441C111.84 22.8441 113.975 24.3564 115.171 25.5663C116.88 27.2947 118.033 29.9306 118.033 33.085C118.033 36.4122 116.88 38.9184 115 40.8197C113.121 42.7209 111.071 43.4123 108.551 43.4123C104.749 43.4123 103.126 41.4678 102.485 40.5604V52.6594ZM103.51 29.6281C102.528 30.622 102.058 32.0047 102.058 33.1714C102.058 34.3381 102.528 35.6344 103.425 36.585C104.322 37.4924 105.603 38.0542 106.928 38.0542C108.081 38.0542 109.32 37.5789 110.217 36.7147C111.199 35.764 111.712 34.2949 111.712 33.0418C111.712 31.6158 111.114 30.3627 110.259 29.5417C109.362 28.6775 108.166 28.2022 106.928 28.2022C105.219 28.2022 104.108 29.0232 103.51 29.6281Z" fill="#1B222D"/>
<path d="M128.455 52.6594H122.305V23.4922H128.455V25.7824C130.463 23.1465 132.94 22.8441 134.393 22.8441C137.81 22.8441 139.946 24.3564 141.142 25.5663C142.85 27.2947 144.003 29.9306 144.003 33.085C144.003 36.4122 142.85 38.9184 140.971 40.8197C139.091 42.7209 137.041 43.4123 134.521 43.4123C130.719 43.4123 129.096 41.4678 128.455 40.5604V52.6594ZM129.481 29.6281C128.498 30.622 128.028 32.0047 128.028 33.1714C128.028 34.3381 128.498 35.6344 129.395 36.585C130.292 37.4924 131.574 38.0542 132.898 38.0542C134.051 38.0542 135.29 37.5789 136.187 36.7147C137.169 35.764 137.682 34.2949 137.682 33.0418C137.682 31.6158 137.084 30.3627 136.229 29.5417C135.332 28.6775 134.136 28.2022 132.898 28.2022C131.189 28.2022 130.079 29.0232 129.481 29.6281Z" fill="#1B222D"/>
<path d="M157.715 13.9427C159.252 13.9427 162.755 14.0291 164.976 16.1464C166.813 17.9181 167.026 20.3379 167.026 21.591C167.026 22.7144 166.855 24.0108 166.087 25.2639C165.36 26.4738 164.378 27.0787 163.695 27.3812C165.061 27.5972 166.599 28.2886 167.624 29.3257C168.564 30.2763 169.461 31.9183 169.461 34.4677C169.461 37.3628 168.35 39.1777 167.24 40.3012C164.891 42.5913 161.473 42.7642 159.722 42.7642H149.001V13.9427H157.715ZM155.493 25.6528H156.561C157.458 25.6528 158.953 25.5231 159.893 24.8318C160.491 24.3997 161.046 23.5354 161.046 22.2823C161.046 21.0292 160.448 20.2514 159.936 19.8625C158.996 19.128 157.715 19.128 156.519 19.128H155.493V25.6528ZM155.493 37.5789H157.074C158.74 37.5789 160.747 37.5357 161.943 36.4122C162.541 35.8505 162.883 35.0295 162.883 33.9924C162.883 32.8257 162.413 32.0479 161.986 31.659C160.833 30.5788 158.612 30.5788 157.287 30.5788H155.493V37.5789Z" fill="#1B222D"/>
<path d="M180.225 23.4922V34.122C180.225 34.9862 180.31 36.3257 181.293 37.2332C181.72 37.6221 182.489 38.1406 183.856 38.1406C185.009 38.1406 185.906 37.7517 186.461 37.2332C187.358 36.3689 187.486 35.0726 187.486 34.122V23.4922H193.637V34.7269C193.637 36.9307 193.424 39.0048 191.501 40.9061C189.323 43.0666 186.119 43.4123 183.856 43.4123C181.592 43.4123 178.345 43.0666 176.167 40.9061C174.416 39.1776 174.074 37.2332 174.074 35.1158V23.4922H180.225Z" fill="#1B222D"/>
<path d="M205.64 40.3011L196.542 23.4922H203.632L209.014 33.9492L214.268 23.4922H221.188L205.853 52.6593H198.934L205.64 40.3011Z" fill="#1B222D"/>
<path d="M239.683 20.986C237.547 19.0415 235.71 18.9119 234.899 18.9119C234.002 18.9119 232.891 19.0415 232.122 19.9057C231.695 20.3378 231.396 20.986 231.396 21.7206C231.396 22.4119 231.61 22.9305 232.037 23.3194C232.72 23.9675 233.703 24.2268 235.625 24.9614L237.761 25.7824C238.999 26.2577 240.537 26.9058 241.648 27.9861C243.314 29.5849 243.741 31.659 243.741 33.3442C243.741 36.3257 242.716 38.9184 241.221 40.474C238.7 43.153 235.027 43.4123 233.148 43.4123C231.097 43.4123 229.303 43.1098 227.509 42.2024C226.057 41.4678 224.391 40.1283 223.323 39.048L226.74 34.2948C227.467 35.0294 228.62 36.0233 229.389 36.4986C230.499 37.19 231.653 37.5356 232.977 37.5356C233.831 37.5356 235.027 37.3628 235.967 36.5418C236.522 36.0665 236.992 35.2887 236.992 34.2084C236.992 33.2578 236.607 32.6528 236.009 32.1343C235.241 31.4862 233.489 30.838 232.678 30.5355L230.328 29.7145C229.004 29.2392 227.467 28.6343 226.356 27.4244C224.861 25.8256 224.647 23.7947 224.647 22.4119C224.647 19.8625 225.416 17.702 227.125 15.9303C229.132 13.8562 231.524 13.2945 234.173 13.2945C236.138 13.2945 239.298 13.6402 242.63 16.1464L239.683 20.986Z" fill="#1B222D"/>
<path d="M267.703 34.2084H253.479C253.479 35.2455 253.864 36.6282 254.633 37.4924C255.572 38.5295 256.854 38.7023 257.794 38.7023C258.733 38.7023 259.63 38.5295 260.271 38.1406C260.356 38.0974 261.083 37.6221 261.595 36.5418L267.404 37.1468C266.55 39.869 264.841 41.295 263.731 41.9863C261.894 43.1098 259.844 43.4123 257.708 43.4123C254.846 43.4123 252.326 42.8938 250.105 40.6468C248.439 38.9616 247.243 36.4122 247.243 33.2146C247.243 30.4491 248.226 27.5972 250.148 25.6095C252.454 23.2762 255.316 22.8441 257.452 22.8441C259.588 22.8441 262.663 23.233 265.012 25.7392C267.276 28.159 267.703 31.1837 267.703 33.5603V34.2084ZM262.022 30.4923C261.98 30.3195 261.681 29.1096 260.784 28.2454C260.1 27.5972 259.118 27.1651 257.879 27.1651C256.299 27.1651 255.359 27.8133 254.761 28.4182C254.291 28.9367 253.864 29.6281 253.693 30.4923H262.022Z" fill="#1B222D"/>
<path d="M278.296 11.2636V42.7641H272.146V11.2636H278.296Z" fill="#1B222D"/>
<path d="M290 11.2636V42.7641H283.849V11.2636H290Z" fill="#1B222D"/>
</g>
<defs>
<clipPath id="clip0_1453_61">
<rect width="290" height="62" fill="white"/>
</clipPath>
</defs>
</svg>
