<svg width="180" height="56" viewBox="0 0 180 56" fill="none" xmlns="http://www.w3.org/2000/svg">
<path d="M0.628075 53.1353V17.2244H7.19655L7.38833 22.9299L6.14176 22.4984C6.36551 21.4756 6.90888 20.5327 7.7719 19.6696C8.66687 18.8066 9.76961 18.1034 11.0801 17.5601C12.3906 17.0167 13.765 16.745 15.2034 16.745C17.4089 16.745 19.3586 17.3203 21.0527 18.471C22.7787 19.5897 24.1372 21.14 25.128 23.1217C26.1509 25.0715 26.6623 27.3249 26.6623 29.882C26.6623 32.4071 26.1668 34.6605 25.176 36.6422C24.1851 38.6239 22.8267 40.1902 21.1006 41.3408C19.3746 42.4596 17.4089 43.0189 15.2034 43.0189C13.7331 43.0189 12.3267 42.7472 10.9842 42.2038C9.67372 41.6285 8.555 40.8774 7.62806 39.9504C6.70112 39.0235 6.12578 38.0326 5.90204 36.9778L7.48423 36.3066V53.1353H0.628075ZM13.6691 37.1696C14.9157 37.1696 16.0185 36.866 16.9774 36.2587C17.9363 35.6514 18.6874 34.8043 19.2308 33.7176C19.7742 32.5988 20.0458 31.3203 20.0458 29.882C20.0458 28.4436 19.7742 27.1811 19.2308 26.0943C18.6874 25.0075 17.9363 24.1605 16.9774 23.5532C16.0504 22.9459 14.9477 22.6422 13.6691 22.6422C12.3906 22.6422 11.2719 22.9459 10.313 23.5532C9.35408 24.1285 8.60294 24.9756 8.05957 26.0943C7.51619 27.1811 7.2445 28.4436 7.2445 29.882C7.2445 31.3203 7.51619 32.5988 8.05957 33.7176C8.60294 34.8043 9.35408 35.6514 10.313 36.2587C11.2719 36.866 12.3906 37.1696 13.6691 37.1696Z" fill="#2E3538"/>
<path d="M28.9344 42.5874V17.2244H35.5029L35.7426 25.3751L34.5919 23.697C34.9755 22.3865 35.5988 21.2039 36.4618 20.1491C37.3248 19.0623 38.3317 18.2153 39.4823 17.608C40.665 17.0007 41.8956 16.6971 43.1741 16.6971C43.7175 16.6971 44.2449 16.745 44.7563 16.8409C45.2677 16.9368 45.6992 17.0486 46.0508 17.1765L44.2289 24.6559C43.8453 24.4642 43.3819 24.3043 42.8385 24.1765C42.2951 24.0167 41.7358 23.9368 41.1604 23.9368C40.3933 23.9368 39.6741 24.0806 39.0029 24.3683C38.3636 24.624 37.8043 25.0075 37.3248 25.519C36.8454 25.9984 36.4618 26.5737 36.1741 27.245C35.9184 27.9162 35.7906 28.6514 35.7906 29.4505V42.5874H28.9344Z" fill="#2E3538"/>
<path d="M58.3956 43.0669C55.8065 43.0669 53.4892 42.5075 51.4435 41.3888C49.4298 40.2381 47.8317 38.6719 46.649 36.6902C45.4983 34.7084 44.923 32.439 44.923 29.882C44.923 27.3249 45.4983 25.0715 46.649 23.1217C47.8317 21.14 49.4298 19.5738 51.4435 18.4231C53.4892 17.2724 55.8065 16.6971 58.3956 16.6971C60.9526 16.6971 63.238 17.2724 65.2517 18.4231C67.2974 19.5738 68.8955 21.14 70.0462 23.1217C71.1969 25.0715 71.7722 27.3249 71.7722 29.882C71.7722 32.439 71.1969 34.7084 70.0462 36.6902C68.8955 38.6719 67.2974 40.2381 65.2517 41.3888C63.238 42.5075 60.9526 43.0669 58.3956 43.0669ZM58.3956 37.1217C59.6421 37.1217 60.7609 36.818 61.7517 36.2107C62.7426 35.5714 63.5097 34.7084 64.0531 33.6217C64.6284 32.503 64.9161 31.2564 64.9161 29.882C64.9161 28.4756 64.6284 27.229 64.0531 26.1422C63.5097 25.0235 62.7426 24.1605 61.7517 23.5532C60.7609 22.9139 59.6421 22.5943 58.3956 22.5943C57.117 22.5943 55.9823 22.9139 54.9915 23.5532C54.0006 24.1925 53.2175 25.0555 52.6422 26.1422C52.0668 27.229 51.7951 28.4756 51.8271 29.882C51.7951 31.2564 52.0668 32.503 52.6422 33.6217C53.2175 34.7084 54.0006 35.5714 54.9915 36.2107C55.9823 36.818 57.117 37.1217 58.3956 37.1217Z" fill="#2E3538"/>
<path d="M84.9013 43.0669C82.6959 43.0669 80.7141 42.5075 78.9562 41.3888C77.1982 40.2381 75.8078 38.6879 74.7849 36.7381C73.7941 34.7564 73.2986 32.471 73.2986 29.882C73.2986 27.3568 73.7941 25.1034 74.7849 23.1217C75.8078 21.14 77.1822 19.5738 78.9082 18.4231C80.6662 17.2724 82.6639 16.6971 84.9013 16.6971C86.084 16.6971 87.2187 16.8888 88.3054 17.2724C89.4242 17.624 90.415 18.1194 91.278 18.7587C92.173 19.398 92.8922 20.1171 93.4356 20.9162C93.9789 21.6833 94.2826 22.4984 94.3465 23.3614L92.6205 23.6491V7.10803H99.4287V42.5874H93.0041L92.7164 36.7381L94.0589 36.8819C93.9949 37.681 93.7073 38.4482 93.1958 39.1833C92.6844 39.9185 91.9972 40.5897 91.1342 41.197C90.3032 41.7723 89.3443 42.2358 88.2575 42.5874C87.2027 42.907 86.084 43.0669 84.9013 43.0669ZM86.4356 37.4093C87.7141 37.4093 88.8328 37.0897 89.7917 36.4504C90.7506 35.8112 91.5018 34.9322 92.0452 33.8135C92.5885 32.6947 92.8602 31.3842 92.8602 29.882C92.8602 28.4116 92.5885 27.1171 92.0452 25.9984C91.5018 24.8477 90.7506 23.9687 89.7917 23.3614C88.8328 22.7222 87.7141 22.4025 86.4356 22.4025C85.1571 22.4025 84.0383 22.7222 83.0794 23.3614C82.1525 23.9687 81.4173 24.8477 80.874 25.9984C80.3625 27.1171 80.1068 28.4116 80.1068 29.882C80.1068 31.3842 80.3625 32.6947 80.874 33.8135C81.4173 34.9322 82.1525 35.8112 83.0794 36.4504C84.0383 37.0897 85.1571 37.4093 86.4356 37.4093Z" fill="#2E3538"/>
<path d="M102.23 42.5874V7.10803H108.943V22.4025L107.6 22.9779C107.952 21.8272 108.575 20.7884 109.47 19.8614C110.397 18.9025 111.5 18.1354 112.778 17.5601C114.057 16.9847 115.399 16.6971 116.806 16.6971C118.724 16.6971 120.322 17.0806 121.6 17.8477C122.911 18.6149 123.886 19.7815 124.525 21.3477C125.196 22.882 125.532 24.7838 125.532 27.0532V42.5874H118.724V27.5806C118.724 26.4299 118.564 25.471 118.244 24.7039C117.925 23.9368 117.429 23.3774 116.758 23.0258C116.119 22.6422 115.32 22.4824 114.361 22.5464C113.593 22.5464 112.874 22.6742 112.203 22.9299C111.564 23.1537 111.004 23.4893 110.525 23.9368C110.078 24.3843 109.71 24.8957 109.422 25.471C109.167 26.0464 109.039 26.6696 109.039 27.3409V42.5874H105.683C104.947 42.5874 104.292 42.5874 103.717 42.5874C103.141 42.5874 102.646 42.5874 102.23 42.5874Z" fill="#2E3538"/>
<path d="M136.467 43.0669C134.613 43.0669 133.015 42.6673 131.672 41.8682C130.362 41.0372 129.339 39.8705 128.604 38.3682C127.9 36.834 127.549 34.9961 127.549 32.8546V17.2244H134.357V31.7518C134.357 32.9025 134.549 33.9093 134.932 34.7724C135.316 35.6034 135.859 36.2427 136.563 36.6902C137.266 37.1376 138.129 37.3614 139.152 37.3614C139.887 37.3614 140.574 37.2495 141.213 37.0258C141.853 36.7701 142.396 36.4185 142.843 35.971C143.291 35.5235 143.642 34.9961 143.898 34.3888C144.154 33.7815 144.282 33.1262 144.282 32.423V17.2244H151.09V42.5874H144.617L144.378 37.3614L145.624 36.7861C145.241 37.9687 144.601 39.0395 143.706 39.9984C142.811 40.9573 141.741 41.7084 140.494 42.2518C139.247 42.7952 137.905 43.0669 136.467 43.0669Z" fill="#2E3538"/>
<path d="M168.009 43.0669C166.89 43.0669 165.803 42.907 164.749 42.5874C163.694 42.2678 162.735 41.8363 161.872 41.2929C161.009 40.7176 160.29 40.0783 159.714 39.3751C159.139 38.6399 158.772 37.8888 158.612 37.1217L160.146 36.5463L159.81 42.4915H153.386V7.10803H160.194V23.1696L158.899 22.6422C159.091 21.8751 159.459 21.14 160.002 20.4368C160.545 19.7016 161.233 19.0623 162.064 18.519C162.895 17.9436 163.806 17.4961 164.797 17.1765C165.787 16.8569 166.81 16.6971 167.865 16.6971C170.071 16.6971 172.036 17.2724 173.762 18.4231C175.488 19.5418 176.847 21.092 177.838 23.0738C178.861 25.0555 179.372 27.3249 179.372 29.882C179.372 32.439 178.876 34.7084 177.886 36.6902C176.895 38.6719 175.536 40.2381 173.81 41.3888C172.116 42.5075 170.182 43.0669 168.009 43.0669ZM166.379 37.2655C167.657 37.2655 168.76 36.9619 169.687 36.3545C170.646 35.7153 171.397 34.8523 171.94 33.7655C172.484 32.6468 172.756 31.3523 172.756 29.882C172.756 28.4436 172.484 27.1651 171.94 26.0463C171.429 24.9276 170.694 24.0646 169.735 23.4573C168.776 22.85 167.657 22.5464 166.379 22.5464C165.1 22.5464 163.982 22.85 163.023 23.4573C162.064 24.0646 161.313 24.9276 160.769 26.0463C160.226 27.1651 159.954 28.4436 159.954 29.882C159.954 31.3523 160.226 32.6468 160.769 33.7655C161.313 34.8523 162.064 35.7153 163.023 36.3545C163.982 36.9619 165.1 37.2655 166.379 37.2655Z" fill="#2E3538"/>
<path fill-rule="evenodd" clip-rule="evenodd" d="M56.0074 9.28116L68.6081 4.4794C69.3813 4.18474 70.247 4.57271 70.5417 5.34594L75.3434 17.9466C75.6381 18.7198 75.2501 19.5855 74.4769 19.8802C73.7037 20.1749 72.8379 19.7869 72.5433 19.0137L69.0296 9.79308L50.6822 50.7333C50.3438 51.4884 49.4573 51.8262 48.7022 51.4878C47.9471 51.1494 47.6093 50.263 47.9477 49.5078L66.2951 8.5676L57.0745 12.0813C56.3012 12.376 55.4355 11.988 55.1409 11.2148C54.8462 10.4415 55.2342 9.57582 56.0074 9.28116Z" fill="url(#paint0_linear_939_293)"/>
<path fill-rule="evenodd" clip-rule="evenodd" d="M71.7289 31.1259C71.7581 30.7335 71.7726 30.3339 71.7726 29.927C71.7726 27.37 71.1973 25.1165 70.0466 23.1668C68.8959 21.185 67.2977 19.6188 65.2521 18.4682C63.2384 17.3175 60.953 16.7421 58.3959 16.7421C55.8069 16.7421 53.4896 17.3175 51.4439 18.4682C49.4302 19.6188 47.832 21.185 46.6494 23.1668C45.4987 25.1165 44.9234 27.37 44.9234 29.927C44.9234 30.3339 44.9379 30.7335 44.9671 31.1259H51.8802C51.8355 30.7377 51.8179 30.3381 51.8274 29.927C51.7955 28.5206 52.0672 27.2741 52.6425 26.1873C53.2179 25.1006 54.001 24.2375 54.9918 23.5983C55.9827 22.959 57.1174 22.6394 58.3959 22.6394C59.6425 22.6394 60.7612 22.959 61.7521 23.5983C62.743 24.2056 63.5101 25.0686 64.0535 26.1873C64.6288 27.2741 64.9165 28.5206 64.9165 29.927C64.9165 30.3381 64.8907 30.7377 64.8393 31.1259H71.7289Z" fill="#2E3538"/>
<defs>
<linearGradient id="paint0_linear_939_293" x1="68.9808" y1="6.11833" x2="49.2884" y2="50.0796" gradientUnits="userSpaceOnUse">
<stop stop-color="#4441D8"/>
<stop offset="1" stop-color="#9E41D8"/>
</linearGradient>
</defs>
</svg>
