<svg width="24" height="24" viewBox="0 0 24 24" fill="none" xmlns="http://www.w3.org/2000/svg">
<mask id="mask0_979_37" style="mask-type:alpha" maskUnits="userSpaceOnUse" x="0" y="0" width="24" height="24">
<rect width="24" height="24" fill="#D9D9D9"/>
</mask>
<g mask="url(#mask0_979_37)">
<path d="M5.46294 19.97C4.42857 18.9356 3.91138 17.6936 3.91138 16.244C3.91137 14.7945 4.42855 13.5525 5.46292 12.5182L13.1051 4.87595C13.8493 4.13179 14.7513 3.75972 15.8112 3.75973C16.871 3.75973 17.773 4.13181 18.5172 4.87597C19.2614 5.62013 19.6334 6.52213 19.6334 7.58199C19.6334 8.64185 19.2614 9.54386 18.5172 10.288L11.6229 17.1823C11.1508 17.6545 10.5887 17.8905 9.93667 17.8905C9.28465 17.8904 8.72255 17.6543 8.25037 17.1821C7.77819 16.71 7.54214 16.1479 7.54222 15.496C7.54232 14.8441 7.77844 14.2821 8.25056 13.81L14.7233 7.33723C14.8451 7.21545 14.9856 7.15453 15.1448 7.15446C15.304 7.1544 15.4444 7.21522 15.5661 7.33691C15.6878 7.45859 15.7487 7.59913 15.7488 7.75852C15.749 7.91793 15.6882 8.05852 15.5664 8.18029L9.09363 14.6531C8.85475 14.8919 8.73532 15.173 8.73532 15.4962C8.73532 15.8194 8.85475 16.1004 9.09363 16.3393C9.3325 16.5781 9.61353 16.6976 9.93673 16.6976C10.2599 16.6976 10.541 16.5781 10.7798 16.3393L17.6741 9.44495C18.1958 8.92332 18.4565 8.30228 18.4564 7.58183C18.4563 6.86137 18.1954 6.24025 17.6736 5.71845C17.1518 5.19666 16.5308 4.93591 15.8108 4.93618C15.0907 4.93645 14.4698 5.1974 13.9482 5.71903L6.306 13.3612C5.51006 14.1572 5.11208 15.1181 5.11207 16.2441C5.11207 17.37 5.51005 18.3309 6.306 19.1269C7.10196 19.9228 8.06289 20.3208 9.18882 20.3208C10.3148 20.3208 11.2757 19.9228 12.0716 19.1269L19.2923 11.9062C19.4141 11.7844 19.5546 11.7235 19.7138 11.7234C19.873 11.7234 20.0134 11.7842 20.1351 11.9059C20.2568 12.0276 20.3177 12.1681 20.3178 12.3275C20.318 12.4869 20.2572 12.6275 20.1354 12.7493L12.9147 19.97C11.8804 21.0043 10.6384 21.5215 9.18884 21.5215C7.73927 21.5215 6.4973 21.0043 5.46294 19.97Z" fill="#212531"/>
</g>
</svg>
