<svg width="18" height="18" viewBox="0 0 18 18" fill="none" xmlns="http://www.w3.org/2000/svg">
<mask id="mask0_991_2804" style="mask-type:alpha" maskUnits="userSpaceOnUse" x="0" y="0" width="18" height="18">
<rect width="18" height="18" fill="#D9D9D9"/>
</mask>
<g mask="url(#mask0_991_2804)">
<path d="M8.99998 12.5336C9.17162 12.5336 9.31549 12.4756 9.43159 12.3595C9.54769 12.2434 9.60574 12.0995 9.60574 11.9279C9.60574 11.7562 9.54769 11.6124 9.43159 11.4963C9.31549 11.3802 9.17162 11.3221 8.99998 11.3221C8.82834 11.3221 8.68447 11.3802 8.56838 11.4963C8.45227 11.6124 8.39423 11.7562 8.39423 11.9279C8.39423 12.0995 8.45227 12.2434 8.56838 12.3595C8.68447 12.4756 8.82834 12.5336 8.99998 12.5336ZM9.00023 9.92306C9.15968 9.92306 9.29324 9.86916 9.40093 9.76136C9.50862 9.65355 9.56246 9.51996 9.56246 9.36058V5.95671C9.56246 5.79733 9.50854 5.66374 9.40069 5.55594C9.29283 5.44813 9.15918 5.39423 8.99974 5.39423C8.84029 5.39423 8.70672 5.44813 8.59903 5.55594C8.49134 5.66374 8.4375 5.79733 8.4375 5.95671V9.36058C8.4375 9.51996 8.49143 9.65355 8.59928 9.76136C8.70714 9.86916 8.84079 9.92306 9.00023 9.92306ZM6.9072 15.375C6.7243 15.375 6.54997 15.3399 6.38421 15.2697C6.21844 15.1995 6.07403 15.1028 5.95095 14.9798L3.02019 12.049C2.89712 11.9259 2.80049 11.7815 2.7303 11.6158C2.6601 11.45 2.625 11.2757 2.625 11.0928V6.9072C2.625 6.7243 2.6601 6.54997 2.7303 6.38421C2.80049 6.21844 2.89712 6.07403 3.02019 5.95095L5.95095 3.02019C6.07403 2.89712 6.21844 2.80049 6.38421 2.7303C6.54997 2.6601 6.7243 2.625 6.9072 2.625H11.0928C11.2757 2.625 11.45 2.6601 11.6158 2.7303C11.7815 2.80049 11.9259 2.89712 12.049 3.02019L14.9798 5.95095C15.1028 6.07403 15.1995 6.21844 15.2697 6.38421C15.3399 6.54997 15.375 6.7243 15.375 6.9072V11.0928C15.375 11.2757 15.3399 11.45 15.2697 11.6158C15.1995 11.7815 15.1028 11.9259 14.9798 12.049L12.049 14.9798C11.9259 15.1028 11.7815 15.1995 11.6158 15.2697C11.45 15.3399 11.2757 15.375 11.0928 15.375H6.9072Z" fill="#FF5C5C"/>
</g>
</svg>
