<svg width="14" height="14" viewBox="0 0 14 14" fill="none" xmlns="http://www.w3.org/2000/svg">
<path d="M6.99998 10.5336C7.17162 10.5336 7.31549 10.4756 7.43159 10.3595C7.54769 10.2434 7.60574 10.0995 7.60574 9.92787C7.60574 9.75623 7.54769 9.61236 7.43159 9.49626C7.31549 9.38015 7.17162 9.32209 6.99998 9.32209C6.82834 9.32209 6.68447 9.38015 6.56838 9.49626C6.45227 9.61236 6.39423 9.75623 6.39423 9.92787C6.39423 10.0995 6.45227 10.2434 6.56838 10.3595C6.68447 10.4756 6.82834 10.5336 6.99998 10.5336ZM7.00023 7.92306C7.15968 7.92306 7.29324 7.86916 7.40093 7.76136C7.50862 7.65355 7.56246 7.51996 7.56246 7.36058V3.95671C7.56246 3.79733 7.50854 3.66374 7.40069 3.55594C7.29283 3.44813 7.15918 3.39423 6.99974 3.39423C6.84029 3.39423 6.70672 3.44813 6.59903 3.55594C6.49134 3.66374 6.4375 3.79733 6.4375 3.95671V7.36058C6.4375 7.51996 6.49143 7.65355 6.59928 7.76136C6.70714 7.86916 6.84079 7.92306 7.00023 7.92306ZM4.9072 13.375C4.7243 13.375 4.54997 13.3399 4.38421 13.2697C4.21844 13.1995 4.07403 13.1028 3.95095 12.9798L1.02019 10.049C0.897119 9.92594 0.800487 9.78152 0.7303 9.61576C0.6601 9.45 0.625 9.27566 0.625 9.09276V4.9072C0.625 4.7243 0.6601 4.54997 0.7303 4.38421C0.800487 4.21844 0.897119 4.07403 1.02019 3.95095L3.95095 1.02019C4.07403 0.897119 4.21844 0.800488 4.38421 0.730301C4.54997 0.660101 4.7243 0.625 4.9072 0.625H9.09276C9.27566 0.625 9.44999 0.660101 9.61576 0.730301C9.78152 0.800488 9.92594 0.897119 10.049 1.02019L12.9798 3.95095C13.1028 4.07403 13.1995 4.21844 13.2697 4.38421C13.3399 4.54997 13.375 4.7243 13.375 4.9072V9.09276C13.375 9.27566 13.3399 9.45 13.2697 9.61576C13.1995 9.78152 13.1028 9.92594 12.9798 10.049L10.049 12.9798C9.92594 13.1028 9.78152 13.1995 9.61576 13.2697C9.44999 13.3399 9.27566 13.375 9.09276 13.375H4.9072ZM4.82498 12.25H9.17498L12.25 9.17498V4.82498L9.17498 1.74998H4.82498L1.74998 4.82498V9.17498L4.82498 12.25Z" fill="#FF5C5C"/>
</svg>
