<svg width="345" height="200" viewBox="0 0 345 200" fill="none" xmlns="http://www.w3.org/2000/svg">
<rect x="1" y="1" width="343" height="198" rx="4" fill="white"/>
<rect x="1" y="1" width="343" height="198" rx="4" stroke="#D9D9E8" stroke-width="2" stroke-dasharray="2 2"/>
<mask id="mask0_1371_388" style="mask-type:alpha" maskUnits="userSpaceOnUse" x="145" y="31" width="55" height="55">
<rect x="145" y="31" width="55" height="55" fill="#D9D9D9"/>
</mask>
<g mask="url(#mask0_1371_388)">
<path d="M186.117 50.7434C185.63 50.7434 185.222 50.5787 184.893 50.2493C184.564 49.9199 184.399 49.5117 184.399 49.0247V46.1601H181.534C181.048 46.1601 180.639 45.9953 180.31 45.6658C179.981 45.3362 179.816 44.9278 179.816 44.4407C179.816 43.9534 179.981 43.5453 180.31 43.2163C180.639 42.8872 181.048 42.7227 181.534 42.7227H184.399V39.8581C184.399 39.3711 184.564 38.9629 184.894 38.6335C185.223 38.3041 185.631 38.1394 186.119 38.1394C186.606 38.1394 187.014 38.3041 187.343 38.6335C187.672 38.9629 187.837 39.3711 187.837 39.8581V42.7227H190.701C191.188 42.7227 191.596 42.8875 191.926 43.217C192.255 43.5466 192.42 43.955 192.42 44.4421C192.42 44.9294 192.255 45.3375 191.926 45.6665C191.596 45.9956 191.188 46.1601 190.701 46.1601H187.837V49.0247C187.837 49.5117 187.672 49.9199 187.342 50.2493C187.013 50.5787 186.604 50.7434 186.117 50.7434ZM162.1 69.3853H182.195C182.602 69.3853 182.908 69.1972 183.111 68.8212C183.314 68.4451 183.285 68.0808 183.024 67.7282L177.559 60.4082C177.345 60.1321 177.069 59.994 176.731 59.994C176.393 59.994 176.116 60.134 175.901 60.4139L170.297 67.7106L166.542 62.8982C166.327 62.6367 166.055 62.506 165.724 62.506C165.394 62.506 165.121 62.6441 164.907 62.9203L161.293 67.7282C161.017 68.0808 160.98 68.4451 161.184 68.8212C161.387 69.1972 161.693 69.3853 162.1 69.3853ZM156.723 77.979C155.584 77.979 154.608 77.5734 153.797 76.7621C152.986 75.9508 152.58 74.9756 152.58 73.8364V43.1635C152.58 42.0242 152.986 41.049 153.797 40.2377C154.608 39.4265 155.584 39.0208 156.723 39.0208H174.924C175.411 39.0208 175.819 39.1855 176.149 39.5149C176.478 39.8444 176.643 40.2526 176.643 40.7396V47.2619C176.643 47.8488 176.841 48.3408 177.238 48.7378C177.635 49.1348 178.127 49.3333 178.714 49.3333H181.226V51.8453C181.226 52.4322 181.424 52.9241 181.821 53.3211C182.218 53.7181 182.71 53.9166 183.297 53.9166H189.82C190.307 53.9166 190.715 54.0813 191.044 54.4107C191.374 54.7402 191.538 55.1483 191.538 55.6353V73.8364C191.538 74.9756 191.133 75.9508 190.321 76.7621C189.51 77.5734 188.535 77.979 187.396 77.979H156.723Z" fill="#D9D9E8"/>
</g>
<rect x="94" y="96.5" width="157" height="32" rx="3.5" stroke="#212531"/>
<path d="M113.715 117.16V110.74H114.807V118.912H113.715V118.216H106.035V118.936H104.943V110.74H106.035V117.16H113.715ZM111.723 113.128V111.82H110.307V113.128H111.723ZM111.723 115.336V114.016H110.307V115.336H111.723ZM107.931 114.016V115.336H109.335V114.016H107.931ZM107.931 111.82V113.128H109.335V111.82H107.931ZM104.571 108.688H115.155V109.72H110.379V110.896H112.695V116.26H106.995V110.896H109.263V109.72H104.571V108.688ZM119.187 107.98L120.219 108.268C119.955 109.06 119.643 109.864 119.283 110.632V118.936H118.227V112.576C117.915 113.068 117.603 113.512 117.267 113.896C117.171 113.62 116.883 112.996 116.715 112.72C117.711 111.556 118.635 109.78 119.187 107.98ZM121.527 111.076V112.24H123.423V111.076H121.527ZM124.335 109.504H122.247C122.043 109.768 121.827 110.032 121.599 110.296H123.759C123.963 110.068 124.167 109.792 124.335 109.504ZM126.459 112.24V111.076H124.443V112.24H126.459ZM127.143 113.332L127.923 113.992C127.371 114.472 126.663 115 126.099 115.348C126.603 116.32 127.251 117.1 128.079 117.58C127.851 117.772 127.515 118.168 127.359 118.456C125.763 117.412 124.815 115.396 124.275 113.008H124.011C123.783 113.188 123.543 113.356 123.291 113.524C125.247 115.168 125.247 117.772 124.299 118.54C123.927 118.852 123.603 118.936 123.111 118.948C122.859 118.948 122.535 118.948 122.211 118.924C122.199 118.66 122.127 118.252 121.959 117.976C122.319 118.012 122.667 118.024 122.895 118.024C123.171 118.024 123.363 118 123.555 117.808C123.819 117.604 123.963 117.124 123.903 116.524C122.883 117.34 121.479 118.144 120.303 118.6C120.159 118.336 119.919 118 119.703 117.784C121.047 117.364 122.727 116.464 123.687 115.588C123.603 115.396 123.507 115.192 123.387 115C122.547 115.612 121.371 116.236 120.435 116.596C120.327 116.38 120.099 116.056 119.907 115.864C120.891 115.576 122.151 114.988 122.955 114.4C122.823 114.256 122.679 114.112 122.535 113.98C121.851 114.364 121.119 114.688 120.447 114.928C120.315 114.736 120.003 114.364 119.811 114.172C120.759 113.908 121.779 113.5 122.607 113.008H120.507V111.328L120.375 111.436C120.183 111.208 119.811 110.932 119.559 110.8C120.747 109.972 121.599 108.844 122.067 107.944L123.135 108.136C123.039 108.316 122.931 108.496 122.811 108.676H124.923L125.115 108.616L125.787 109.096C125.559 109.492 125.271 109.912 124.971 110.296H127.527V113.008H125.223C125.355 113.548 125.523 114.064 125.727 114.544C126.219 114.172 126.783 113.704 127.143 113.332ZM134.727 108.448C134.655 108.784 134.559 109.228 134.403 109.744C135.579 109.696 136.839 109.588 137.931 109.396V110.512C136.755 110.68 135.279 110.788 133.983 110.824C133.719 111.388 133.395 111.952 133.059 112.408C133.455 112.18 134.127 112.048 134.595 112.048C135.351 112.048 135.975 112.396 136.203 113.068C136.947 112.72 137.559 112.468 138.123 112.204C138.531 112.024 138.879 111.868 139.263 111.676L139.755 112.78C139.407 112.888 138.891 113.08 138.531 113.224C137.919 113.464 137.139 113.776 136.299 114.16C136.311 114.844 136.323 115.804 136.335 116.38H135.195C135.219 115.96 135.231 115.276 135.243 114.688C134.211 115.252 133.563 115.804 133.563 116.512C133.563 117.328 134.343 117.496 135.555 117.496C136.527 117.496 137.835 117.376 138.891 117.184L138.855 118.396C137.991 118.504 136.599 118.612 135.519 118.612C133.731 118.612 132.339 118.192 132.339 116.704C132.339 115.228 133.779 114.292 135.171 113.584C135.015 113.164 134.631 112.984 134.187 112.984C133.455 112.984 132.699 113.368 132.195 113.848C131.847 114.184 131.499 114.628 131.103 115.132L130.071 114.364C131.475 113.044 132.291 111.88 132.783 110.86C132.663 110.86 132.543 110.86 132.435 110.86C131.931 110.86 131.103 110.836 130.431 110.788V109.66C131.067 109.756 131.919 109.792 132.495 109.792C132.723 109.792 132.963 109.792 133.203 109.78C133.359 109.288 133.455 108.784 133.479 108.352L134.727 108.448ZM151.575 109.744V109.096H149.151V108.352H152.547V110.5H150.303V110.944C150.303 111.184 150.363 111.22 150.735 111.22H151.947C152.211 111.22 152.271 111.148 152.307 110.656C152.499 110.788 152.847 110.908 153.111 110.968C153.015 111.772 152.739 111.988 152.067 111.988H150.603C149.643 111.988 149.367 111.772 149.367 110.944V109.744H151.575ZM147.699 109.744V109.096H145.275V108.352H148.647V110.5H146.391V110.944C146.391 111.184 146.451 111.22 146.799 111.22H147.939C148.203 111.22 148.251 111.16 148.287 110.692C148.467 110.824 148.827 110.944 149.091 110.992C148.995 111.772 148.731 111.988 148.059 111.988H146.691C145.719 111.988 145.467 111.772 145.467 110.956V109.744H147.699ZM148.191 113.716V114.7H149.883V113.716H148.191ZM153.051 114.7V115.552H145.083V114.7H147.135V113.716H145.455V112.888H147.135V112.12H148.191V112.888H149.883V112.12H150.951V112.888H152.679V113.716H150.951V114.7H153.051ZM152.943 117.016L151.815 117.46C151.347 117.04 150.495 116.488 149.703 116.08L150.495 115.6C151.371 116.008 152.367 116.572 152.943 117.016ZM147.555 115.588L148.539 115.924C147.927 116.512 146.943 117.076 146.151 117.436C145.971 117.244 145.575 116.908 145.335 116.752C146.163 116.452 147.027 116.032 147.555 115.588ZM144.867 110.176L143.919 110.812C143.619 110.224 142.887 109.372 142.215 108.772L143.103 108.208C143.775 108.784 144.531 109.588 144.867 110.176ZM144.627 112.588V116.428C145.155 117.28 146.139 117.664 147.459 117.712C148.851 117.772 151.707 117.736 153.243 117.628C153.135 117.88 152.967 118.36 152.907 118.684C151.491 118.744 148.887 118.768 147.471 118.72C145.959 118.66 144.915 118.252 144.183 117.328C143.703 117.82 143.199 118.312 142.635 118.828L142.071 117.772C142.539 117.436 143.091 116.98 143.595 116.524V113.62H142.227V112.588H144.627ZM159.147 113.128L159.243 114.148C158.703 114.28 158.151 114.412 157.611 114.544V117.664C157.611 118.264 157.479 118.564 157.107 118.744C156.747 118.9 156.183 118.936 155.271 118.936C155.247 118.648 155.091 118.192 154.947 117.904C155.535 117.928 156.111 117.928 156.291 117.916C156.459 117.904 156.531 117.856 156.531 117.664V114.796C155.955 114.94 155.415 115.06 154.935 115.168L154.671 114.088C155.199 113.992 155.835 113.86 156.531 113.716V111.328H154.851V110.296H156.531V107.932H157.611V110.296H159.159V111.328H157.611V113.476C158.115 113.368 158.643 113.248 159.147 113.128ZM164.235 109.66H160.815V112.492H164.235V109.66ZM165.351 113.536H163.143C163.599 115.54 164.475 117.232 165.987 117.988C165.723 118.204 165.375 118.672 165.207 118.972C163.467 117.976 162.543 116.02 162.039 113.536H160.791C160.707 115.348 160.323 117.52 158.943 118.948C158.775 118.732 158.319 118.324 158.091 118.192C159.567 116.656 159.699 114.4 159.699 112.648V108.604H165.351V113.536ZM171.111 108.58C171.039 109.024 170.991 109.528 170.979 109.96C170.919 111.292 170.835 114.064 170.835 115.72C170.835 116.992 171.615 117.424 172.659 117.424C174.759 117.424 176.019 116.236 176.883 114.952L177.735 115.996C176.943 117.136 175.323 118.684 172.635 118.684C170.811 118.684 169.587 117.904 169.587 115.912C169.587 114.208 169.707 111.112 169.707 109.96C169.707 109.456 169.659 108.964 169.575 108.568L171.111 108.58ZM180.048 109.9C180.516 109.888 180.936 109.864 181.164 109.84C182.04 109.756 184.176 109.552 186.384 109.372C187.668 109.264 188.868 109.192 189.696 109.156V110.368C189.036 110.368 187.992 110.38 187.368 110.548C185.772 111.028 184.704 112.732 184.704 114.16C184.704 116.344 186.744 117.076 188.736 117.16L188.292 118.432C185.94 118.324 183.48 117.064 183.48 114.412C183.48 112.612 184.548 111.148 185.52 110.512C184.308 110.644 181.512 110.932 180.18 111.22L180.048 109.9ZM199.941 109.24C199.641 109.468 199.257 109.792 199.017 109.984C198.213 110.656 196.557 111.964 195.705 112.684C195.021 113.272 195.021 113.428 195.729 114.04C196.749 114.88 198.933 116.62 200.181 117.868L199.089 118.864C198.801 118.54 198.489 118.204 198.177 117.892C197.373 117.076 195.585 115.54 194.469 114.604C193.305 113.632 193.425 113.056 194.565 112.108C195.489 111.34 197.229 109.948 198.045 109.144C198.321 108.856 198.669 108.496 198.825 108.244L199.941 109.24ZM210.417 115.264C210.321 115.636 210.261 116.008 210.261 116.308C210.261 116.848 210.585 117.34 212.121 117.34C212.901 117.34 213.729 117.244 214.521 117.1L214.485 118.312C213.813 118.396 213.021 118.48 212.109 118.48C210.153 118.48 209.097 117.844 209.097 116.656C209.097 116.152 209.193 115.648 209.289 115.156L210.417 115.264ZM209.049 108.652C208.977 108.952 208.869 109.444 208.821 109.684C208.773 109.888 208.725 110.128 208.677 110.392C209.409 110.296 210.153 110.152 210.849 109.984V111.16C210.093 111.34 209.253 111.472 208.425 111.568C208.317 112.084 208.185 112.636 208.053 113.14C207.609 114.832 206.805 117.304 206.157 118.66L204.837 118.216C205.557 116.992 206.433 114.52 206.877 112.84C206.973 112.468 207.081 112.072 207.165 111.676C206.829 111.688 206.505 111.7 206.205 111.7C205.641 111.7 205.209 111.688 204.777 111.652L204.753 110.476C205.341 110.548 205.749 110.572 206.217 110.572C206.589 110.572 206.997 110.56 207.405 110.524C207.477 110.164 207.537 109.864 207.561 109.636C207.621 109.252 207.633 108.808 207.609 108.544L209.049 108.652ZM209.997 112.3C210.645 112.24 211.473 112.192 212.241 112.192C212.937 112.192 213.657 112.216 214.341 112.288L214.305 113.44C213.693 113.356 212.985 113.296 212.265 113.296C211.485 113.296 210.753 113.332 209.997 113.416V112.3ZM213.045 109.012C213.345 109.444 213.777 110.2 214.017 110.656L213.225 111.004C212.985 110.512 212.589 109.792 212.265 109.336L213.045 109.012ZM214.413 108.496C214.737 108.952 215.181 109.708 215.409 110.14L214.629 110.488C214.365 109.972 213.969 109.276 213.645 108.82L214.413 108.496ZM222.729 109.492C222.645 109.228 222.525 108.832 222.393 108.472L223.689 108.316C223.785 108.928 223.989 109.648 224.205 110.296C225.081 110.176 226.005 109.984 226.797 109.72L226.941 110.92C226.257 111.112 225.393 111.268 224.601 111.388C224.973 112.24 225.453 113.08 225.837 113.62C226.017 113.884 226.209 114.112 226.413 114.328L225.813 115.192C225.189 115.048 223.713 114.904 222.789 114.832L222.873 113.836C223.509 113.884 224.361 113.956 224.769 114.004C224.349 113.356 223.845 112.432 223.461 111.508C222.021 111.628 220.341 111.628 218.373 111.472L218.349 110.26C220.137 110.476 221.745 110.512 223.041 110.416C222.921 110.044 222.813 109.732 222.729 109.492ZM220.449 114.196C220.077 114.772 219.873 115.3 219.873 115.852C219.873 116.932 220.845 117.4 222.573 117.412C223.833 117.424 224.877 117.292 225.717 117.124L225.657 118.324C224.937 118.456 223.893 118.6 222.501 118.588C220.149 118.576 218.661 117.7 218.661 116.032C218.661 115.336 218.889 114.688 219.261 113.932L220.449 114.196ZM232.005 109.54C231.945 109.888 231.885 110.512 231.885 110.836C231.873 111.592 231.885 112.6 231.969 113.536C232.149 115.42 232.641 116.692 233.445 116.692C234.045 116.692 234.573 115.384 234.849 114.292L235.797 115.408C235.041 117.46 234.297 118.168 233.421 118.168C232.209 118.168 231.093 117.016 230.769 113.86C230.649 112.804 230.637 111.364 230.637 110.644C230.637 110.344 230.613 109.84 230.541 109.516L232.005 109.54ZM238.149 109.84C239.253 111.232 240.141 113.98 240.297 115.924L239.061 116.404C238.857 114.34 238.173 111.676 236.961 110.236L238.149 109.84Z" fill="#212531"/>
<path d="M77.5 145.01L77.59 145.68L76.54 146.01V148.86C76.54 149.28 76.45 149.49 76.2 149.62C75.94 149.74 75.54 149.76 74.88 149.75C74.85 149.57 74.76 149.24 74.66 149.04C75.11 149.06 75.52 149.06 75.65 149.05C75.78 149.05 75.82 149.01 75.82 148.86V146.23L74.48 146.64L74.31 145.92C74.72 145.82 75.25 145.67 75.82 145.5V143.32H74.48V142.64H75.82V140.64H76.54V142.64H77.51V143.32H76.54V145.29L77.5 145.01ZM79.05 147.17V148.56H80.68V147.17H79.05ZM80.68 144.52V143.18H79.05V144.52H80.68ZM80.68 146.52V145.16H79.05V146.52H80.68ZM83.57 148.56V149.24H79.05V149.75H78.34V143.98C78.11 144.33 77.86 144.65 77.6 144.93C77.5 144.78 77.25 144.46 77.1 144.31C77.97 143.43 78.67 142.06 79.08 140.62L79.79 140.8C79.61 141.39 79.4 141.96 79.15 142.51H80.68C80.94 141.94 81.21 141.2 81.36 140.66L82.14 140.84C81.92 141.39 81.65 142 81.41 142.51H83.4V143.18H81.36V144.52H83.16V145.16H81.36V146.52H83.16V147.17H81.36V148.56H83.57ZM92.66 144.16V145.54C92.66 145.9 92.58 146.06 92.3 146.17C92.02 146.26 91.6 146.26 90.95 146.26C90.91 146.08 90.8 145.84 90.72 145.67C91.21 145.69 91.65 145.69 91.78 145.68C91.92 145.67 91.95 145.64 91.95 145.52V144.16H88.07V143.58H91.95V143.34L91.5 143.11C91.9 142.68 92.42 142 92.7 141.52L93.33 141.82C93.01 142.25 92.64 142.7 92.31 143.08H92.66V143.58H94.01V144.16H92.66ZM88.78 144.49L89.29 144.19C89.75 144.52 90.25 145.02 90.48 145.37L89.93 145.73C89.72 145.36 89.23 144.84 88.78 144.49ZM88.29 142.06L88.83 141.86C89.13 142.27 89.44 142.8 89.55 143.17L88.98 143.39C88.87 143.03 88.58 142.47 88.29 142.06ZM89.95 141.84L90.52 141.68C90.78 142.1 91.04 142.66 91.12 143.03L90.52 143.22C90.45 142.85 90.21 142.28 89.95 141.84ZM92.9 140.64L93.39 141.14C92.04 141.44 89.95 141.62 88.21 141.69C88.19 141.55 88.11 141.31 88.04 141.16C89.74 141.08 91.78 140.89 92.9 140.64ZM86.54 142.9L85.94 143.17C85.82 142.72 85.47 142.02 85.13 141.5L85.69 141.27C86.04 141.78 86.41 142.46 86.54 142.9ZM86.89 146.38V144.6C86.32 144.91 85.74 145.22 85.26 145.46L84.94 144.83C85.44 144.63 86.16 144.29 86.89 143.92V140.64H87.59V146.38H86.89ZM93.93 147.49H90.25C90.88 148.52 92.16 148.97 94.11 149.09C93.94 149.25 93.76 149.56 93.67 149.77C91.5 149.55 90.18 148.92 89.49 147.49C88.95 148.69 87.83 149.41 85.26 149.76C85.2 149.59 85.04 149.29 84.91 149.14C87.12 148.87 88.14 148.35 88.65 147.49H85.08V146.86H88.92C89.01 146.57 89.07 146.24 89.12 145.89H89.89C89.84 146.24 89.79 146.56 89.71 146.86H93.93V147.49ZM102.2 144.41C102.2 147.07 101.63 148.44 99.34 149.46L98.67 148.83C100.49 148.13 101.4 147.27 101.4 144.47V144.05H98.55V145.67C98.55 146.04 98.58 146.48 98.59 146.58H97.71C97.72 146.48 97.75 146.05 97.75 145.67V144.05H96.67C96.24 144.05 95.79 144.08 95.67 144.09V143.22C95.76 143.24 96.25 143.29 96.67 143.29H97.75V142.01C97.75 141.8 97.74 141.51 97.71 141.28H98.6C98.59 141.38 98.55 141.66 98.55 142.01V143.29H101.4V142.04C101.4 141.65 101.37 141.32 101.35 141.22H102.25C102.24 141.32 102.2 141.65 102.2 142.04V143.29H103.3C103.74 143.29 104.08 143.26 104.22 143.24V144.08C104.11 144.07 103.74 144.05 103.3 144.05H102.2V144.41ZM106.36 145.39C108.09 144.92 109.62 144.22 110.73 143.52C111.77 142.87 112.77 142 113.46 141.17L114.13 141.79C113.37 142.58 112.45 143.34 111.43 144.02V148.24C111.43 148.62 111.45 149.11 111.49 149.31H110.51C110.54 149.12 110.57 148.62 110.57 148.24V144.54C109.52 145.14 108.15 145.74 106.76 146.17L106.36 145.39ZM123.267 140.86C123.517 141.23 123.887 141.84 124.077 142.23L123.537 142.47C123.337 142.07 123.007 141.48 122.737 141.09L123.267 140.86ZM124.397 140.51C124.667 140.88 125.047 141.5 125.237 141.87L124.697 142.11C124.477 141.68 124.147 141.11 123.877 140.74L124.397 140.51ZM123.497 142.49C123.437 142.57 123.307 142.79 123.247 142.92C122.907 143.79 122.277 144.96 121.567 145.86C122.617 146.76 123.837 148.06 124.487 148.84L123.787 149.45C123.117 148.56 122.057 147.39 121.037 146.47C119.967 147.63 118.617 148.72 117.137 149.4L116.497 148.73C118.107 148.1 119.587 146.91 120.617 145.76C121.297 144.99 122.027 143.8 122.277 142.97H118.377C118.027 142.97 117.477 143.01 117.367 143.02V142.12C117.507 142.14 118.077 142.18 118.377 142.18H122.237C122.567 142.18 122.827 142.15 122.987 142.1L123.497 142.49ZM131.197 143.56C130.797 143.56 130.447 143.27 130.447 142.81C130.447 142.35 130.797 142.06 131.197 142.06C131.597 142.06 131.957 142.35 131.957 142.81C131.957 143.27 131.597 143.56 131.197 143.56ZM131.197 148.46C130.797 148.46 130.447 148.16 130.447 147.71C130.447 147.25 130.797 146.95 131.197 146.95C131.597 146.95 131.957 147.25 131.957 147.71C131.957 148.16 131.597 148.46 131.197 148.46ZM137.137 149V148.46C139.437 146.45 140.497 144.99 140.497 143.73C140.497 142.89 140.057 142.28 139.147 142.28C138.547 142.28 138.027 142.65 137.627 143.13L137.097 142.61C137.697 141.96 138.327 141.53 139.257 141.53C140.567 141.53 141.387 142.39 141.387 143.7C141.387 145.16 140.237 146.65 138.517 148.28C138.897 148.25 139.347 148.21 139.717 148.21H141.747V149H137.137ZM143.894 146.25H146.144V144C146.144 143.64 146.174 143.05 146.194 142.67H146.154C145.974 143.03 145.774 143.39 145.564 143.75L143.894 146.25ZM146.144 149V146.98H142.944V146.38L145.994 141.66H147.004V146.25H147.974V146.98H147.004V149H146.144ZM151.571 149.13C150.171 149.13 149.281 147.86 149.281 145.31C149.281 142.76 150.171 141.53 151.571 141.53C152.961 141.53 153.851 142.77 153.851 145.31C153.851 147.86 152.961 149.13 151.571 149.13ZM151.571 148.4C152.401 148.4 152.961 147.47 152.961 145.31C152.961 143.17 152.401 142.26 151.571 142.26C150.731 142.26 150.171 143.17 150.171 145.31C150.171 147.47 150.731 148.4 151.571 148.4ZM162.578 148.46L159.838 145.72L157.108 148.46L156.618 147.98L159.358 145.24L156.618 142.51L157.108 142.02L159.838 144.76L162.578 142.02L163.058 142.5L160.328 145.24L163.058 147.98L162.578 148.46ZM165.778 149V148.46C168.078 146.45 169.138 144.99 169.138 143.73C169.138 142.89 168.698 142.28 167.788 142.28C167.188 142.28 166.668 142.65 166.268 143.13L165.738 142.61C166.338 141.96 166.968 141.53 167.898 141.53C169.208 141.53 170.028 142.39 170.028 143.7C170.028 145.16 168.878 146.65 167.158 148.28C167.538 148.25 167.988 148.21 168.358 148.21H170.388V149H165.778ZM172.535 146.25H174.785V144C174.785 143.64 174.815 143.05 174.835 142.67H174.795C174.615 143.03 174.415 143.39 174.205 143.75L172.535 146.25ZM174.785 149V146.98H171.585V146.38L174.635 141.66H175.645V146.25H176.615V146.98H175.645V149H174.785ZM180.212 149.13C178.812 149.13 177.922 147.86 177.922 145.31C177.922 142.76 178.812 141.53 180.212 141.53C181.602 141.53 182.492 142.77 182.492 145.31C182.492 147.86 181.602 149.13 180.212 149.13ZM180.212 148.4C181.042 148.4 181.602 147.47 181.602 145.31C181.602 143.17 181.042 142.26 180.212 142.26C179.372 142.26 178.812 143.17 178.812 145.31C178.812 147.47 179.372 148.4 180.212 148.4ZM193.725 142.17V141.48H188.725V142.17H193.725ZM193.725 143.37V142.67H188.725V143.37H193.725ZM194.455 140.95V143.9H188.025V140.95H194.455ZM194.355 146.29H192.295C192.525 146.84 192.865 147.34 193.275 147.76C193.725 147.34 194.095 146.85 194.355 146.29ZM188.375 147.57V148.37C188.945 148.31 189.565 148.25 190.185 148.18V147.57H188.375ZM188.375 146.31V147.01H190.185V146.31H188.375ZM190.185 145.08H188.375V145.75H190.185V145.08ZM194.815 145.68L195.265 145.86C194.955 146.81 194.435 147.59 193.795 148.21C194.365 148.65 195.045 148.98 195.815 149.17C195.655 149.31 195.455 149.58 195.365 149.75C194.565 149.52 193.865 149.14 193.275 148.65C192.665 149.12 191.985 149.46 191.285 149.7C191.205 149.53 191.025 149.27 190.895 149.14V149.76H190.185V148.79C188.965 148.94 187.745 149.08 186.815 149.19L186.745 148.53C187.025 148.51 187.345 148.48 187.695 148.44V145.08H186.835V144.46H195.575V145.08H190.895V149.13C191.555 148.93 192.205 148.61 192.775 148.18C192.315 147.68 191.945 147.09 191.675 146.42L192.105 146.29H191.245V145.7H194.685L194.815 145.68ZM206.105 144.25H202.335C203.035 146.45 204.335 148.26 206.265 149.05C206.085 149.22 205.835 149.53 205.705 149.75C203.785 148.84 202.515 147.07 201.725 144.8C201.245 146.72 200.165 148.64 197.735 149.75C197.625 149.55 197.385 149.29 197.175 149.14C199.655 148.06 200.655 146.14 201.065 144.25H197.375V143.49H201.185C201.335 142.44 201.325 141.44 201.335 140.65H202.135C202.125 141.45 202.115 142.44 201.975 143.49H206.105V144.25ZM214.415 144.41C214.415 147.07 213.845 148.44 211.555 149.46L210.885 148.83C212.705 148.13 213.615 147.27 213.615 144.47V144.05H210.765V145.67C210.765 146.04 210.795 146.48 210.805 146.58H209.925C209.935 146.48 209.965 146.05 209.965 145.67V144.05H208.885C208.455 144.05 208.005 144.08 207.885 144.09V143.22C207.975 143.24 208.465 143.29 208.885 143.29H209.965V142.01C209.965 141.8 209.955 141.51 209.925 141.28H210.815C210.805 141.38 210.765 141.66 210.765 142.01V143.29H213.615V142.04C213.615 141.65 213.585 141.32 213.565 141.22H214.465C214.455 141.32 214.415 141.65 214.415 142.04V143.29H215.515C215.955 143.29 216.295 143.26 216.435 143.24V144.08C216.325 144.07 215.955 144.05 215.515 144.05H214.415V144.41ZM218.575 145.39C220.305 144.92 221.835 144.22 222.945 143.52C223.985 142.87 224.985 142 225.675 141.17L226.345 141.79C225.585 142.58 224.665 143.34 223.645 144.02V148.24C223.645 148.62 223.665 149.11 223.705 149.31H222.725C222.755 149.12 222.785 148.62 222.785 148.24V144.54C221.735 145.14 220.365 145.74 218.975 146.17L218.575 145.39ZM235.482 140.86C235.732 141.23 236.102 141.84 236.292 142.23L235.752 142.47C235.552 142.07 235.222 141.48 234.952 141.09L235.482 140.86ZM236.612 140.51C236.882 140.88 237.262 141.5 237.452 141.87L236.912 142.11C236.692 141.68 236.362 141.11 236.092 140.74L236.612 140.51ZM235.712 142.49C235.652 142.57 235.522 142.79 235.462 142.92C235.122 143.79 234.492 144.96 233.782 145.86C234.832 146.76 236.052 148.06 236.702 148.84L236.002 149.45C235.332 148.56 234.272 147.39 233.252 146.47C232.182 147.63 230.832 148.72 229.352 149.4L228.712 148.73C230.322 148.1 231.802 146.91 232.832 145.76C233.512 144.99 234.242 143.8 234.492 142.97H230.592C230.242 142.97 229.692 143.01 229.582 143.02V142.12C229.722 142.14 230.292 142.18 230.592 142.18H234.452C234.782 142.18 235.042 142.15 235.202 142.1L235.712 142.49ZM243.412 143.56C243.012 143.56 242.662 143.27 242.662 142.81C242.662 142.35 243.012 142.06 243.412 142.06C243.812 142.06 244.172 142.35 244.172 142.81C244.172 143.27 243.812 143.56 243.412 143.56ZM243.412 148.46C243.012 148.46 242.662 148.16 242.662 147.71C242.662 147.25 243.012 146.95 243.412 146.95C243.812 146.95 244.172 147.25 244.172 147.71C244.172 148.16 243.812 148.46 243.412 148.46ZM249.352 149V148.46C251.652 146.45 252.712 144.99 252.712 143.73C252.712 142.89 252.272 142.28 251.362 142.28C250.762 142.28 250.242 142.65 249.842 143.13L249.312 142.61C249.912 141.96 250.542 141.53 251.472 141.53C252.782 141.53 253.602 142.39 253.602 143.7C253.602 145.16 252.452 146.65 250.732 148.28C251.112 148.25 251.562 148.21 251.932 148.21H253.962V149H249.352ZM255.959 149V141.66H257.079L258.489 145.59C258.659 146.1 258.829 146.61 259.009 147.12H259.059C259.229 146.61 259.389 146.1 259.559 145.59L260.959 141.66H262.079V149H261.209V144.94C261.209 144.31 261.279 143.42 261.329 142.78H261.289L260.709 144.45L259.319 148.26H258.699L257.309 144.45L256.729 142.78H256.689C256.729 143.42 256.799 144.31 256.799 144.94V149H255.959ZM264.574 149V141.66H266.754C268.244 141.66 269.274 142.17 269.274 143.46C269.274 144.19 268.884 144.83 268.204 145.05V145.1C269.074 145.27 269.694 145.85 269.694 146.85C269.694 148.29 268.554 149 266.914 149H264.574ZM265.504 144.79H266.594C267.854 144.79 268.364 144.32 268.364 143.58C268.364 142.72 267.774 142.4 266.634 142.4H265.504V144.79ZM265.504 148.26H266.784C268.044 148.26 268.784 147.81 268.784 146.82C268.784 145.91 268.064 145.49 266.784 145.49H265.504V148.26ZM82.39 164.43V158.98H83.11V165.73H82.39V165.14H75.64V165.76H74.92V158.98H75.64V164.43H82.39ZM80.72 161.02V159.72H79.29V161.02H80.72ZM80.72 162.93V161.62H79.29V162.93H80.72ZM77.22 161.62V162.93H78.64V161.62H77.22ZM77.22 159.72V161.02H78.64V159.72H77.22ZM74.61 157.29H83.39V157.98H79.33V159.09H81.37V163.56H76.59V159.09H78.59V157.98H74.61V157.29ZM86.85 156.69L87.54 156.88C87.32 157.54 87.06 158.2 86.76 158.83V165.76H86.05V160.16C85.75 160.66 85.44 161.11 85.11 161.5C85.04 161.32 84.84 160.93 84.72 160.75C85.58 159.75 86.37 158.23 86.85 156.69ZM88.56 159.14V160.27H90.39V159.14H88.56ZM91.19 157.84H89.25C89.06 158.09 88.86 158.34 88.63 158.59H90.64C90.84 158.38 91.03 158.1 91.19 157.84ZM92.98 160.27V159.14H91.07V160.27H92.98ZM93.46 161.11L93.98 161.55C93.5 161.98 92.85 162.44 92.34 162.75C92.8 163.62 93.4 164.33 94.14 164.74C93.98 164.88 93.75 165.15 93.65 165.33C92.31 164.49 91.44 162.79 90.97 160.8H90.73C90.54 160.96 90.33 161.11 90.1 161.25C91.76 162.64 91.78 164.85 90.97 165.46C90.68 165.7 90.41 165.76 90.01 165.77C89.8 165.77 89.52 165.76 89.24 165.74C89.23 165.57 89.18 165.29 89.06 165.11C89.38 165.14 89.68 165.15 89.87 165.15C90.12 165.15 90.3 165.13 90.48 164.98C90.76 164.78 90.9 164.26 90.8 163.64C89.93 164.37 88.65 165.11 87.59 165.51C87.49 165.33 87.32 165.1 87.17 164.96C88.35 164.6 89.83 163.78 90.63 163C90.56 162.8 90.46 162.6 90.33 162.4C89.62 162.95 88.58 163.5 87.74 163.81C87.66 163.66 87.5 163.43 87.36 163.3C88.23 163.04 89.35 162.51 90.03 161.98C89.9 161.83 89.76 161.69 89.59 161.55C88.98 161.89 88.31 162.19 87.71 162.41C87.61 162.27 87.4 162.02 87.27 161.89C88.12 161.64 89.06 161.25 89.78 160.8H87.88V159.31C87.79 159.39 87.69 159.47 87.59 159.55C87.46 159.4 87.22 159.21 87.04 159.13C88.07 158.4 88.81 157.42 89.22 156.65L89.93 156.78C89.84 156.94 89.74 157.11 89.63 157.28H91.59L91.72 157.24L92.18 157.55C91.97 157.9 91.71 158.27 91.45 158.59H93.68V160.8H91.61C91.74 161.3 91.9 161.78 92.09 162.22C92.57 161.9 93.11 161.45 93.46 161.11ZM103.44 156.8L104.13 157.09C103.41 158.01 102.28 158.89 101.28 159.44C101.14 159.28 100.93 159.05 100.74 158.92C101.69 158.45 102.83 157.6 103.44 156.8ZM103.73 159.53L104.41 159.82C103.63 160.79 102.44 161.74 101.37 162.34C101.24 162.18 101.03 161.95 100.85 161.81C101.86 161.3 103.06 160.39 103.73 159.53ZM97.45 160.52H99.06V157.95H97.45V160.52ZM100.86 161.21H99.78V165.76H99.06V161.21H97.44C97.4 162.88 97.15 164.52 95.96 165.83C95.84 165.67 95.57 165.43 95.4 165.33C96.48 164.15 96.7 162.69 96.74 161.21H95.45V160.52H96.75V157.95H95.6V157.25H100.72V157.95H99.78V160.52H100.86V161.21ZM103.95 162.22L104.65 162.49C103.81 163.87 102.39 165.05 100.85 165.76C100.73 165.58 100.51 165.32 100.33 165.17C101.8 164.56 103.21 163.45 103.95 162.22ZM114.52 157.9L114 158.37C113.71 158.02 113.09 157.48 112.58 157.12L113.08 156.71C113.59 157.05 114.22 157.56 114.52 157.9ZM108.95 161.42V164.16C109.65 164.01 110.37 163.87 111.09 163.71L111.15 164.36C109.46 164.77 107.63 165.19 106.36 165.47L106.13 164.74C106.69 164.63 107.42 164.48 108.22 164.32V161.42H106.44V160.7H110.82V161.42H108.95ZM114.93 159.21H112.01C112.25 162.58 113.04 165.01 114.03 165.01C114.3 165.01 114.42 164.46 114.48 163.13C114.65 163.3 114.93 163.46 115.14 163.54C115.01 165.27 114.73 165.78 113.97 165.78C112.34 165.78 111.51 162.91 111.25 159.21H106.09V158.49H111.2C111.17 157.9 111.16 157.29 111.15 156.68H111.93C111.93 157.3 111.94 157.9 111.97 158.49H114.93V159.21ZM121 159.56C120.6 159.56 120.25 159.27 120.25 158.81C120.25 158.35 120.6 158.06 121 158.06C121.4 158.06 121.76 158.35 121.76 158.81C121.76 159.27 121.4 159.56 121 159.56ZM121 164.46C120.6 164.46 120.25 164.16 120.25 163.71C120.25 163.25 120.6 162.95 121 162.95C121.4 162.95 121.76 163.25 121.76 163.71C121.76 164.16 121.4 164.46 121 164.46ZM128.87 165.13C127.94 165.13 127.28 164.73 126.85 163.97L127.51 163.5C127.84 164.08 128.25 164.32 128.78 164.32C129.57 164.32 129.96 163.87 129.96 162.76V157.66H130.88V162.85C130.88 164.11 130.3 165.13 128.87 165.13ZM133.361 165V157.66H135.461C137.101 157.66 138.201 158.22 138.201 159.82C138.201 161.37 137.111 162.09 135.501 162.09H134.291V165H133.361ZM134.291 161.34H135.381C136.671 161.34 137.281 160.87 137.281 159.82C137.281 158.76 136.631 158.42 135.341 158.42H134.291V161.34ZM143.06 165.13C141.14 165.13 139.76 163.72 139.76 161.34C139.76 158.97 141.18 157.53 143.12 157.53C144.14 157.53 144.81 157.99 145.23 158.44L144.73 159.04C144.36 158.65 143.89 158.34 143.14 158.34C141.67 158.34 140.71 159.48 140.71 161.31C140.71 163.16 141.58 164.32 143.16 164.32C143.68 164.32 144.19 164.16 144.48 163.89V161.97H142.93V161.2H145.33V164.28C144.86 164.77 144.05 165.13 143.06 165.13ZM151.574 160.14C152.164 160.14 152.634 160.61 152.634 161.2C152.634 161.79 152.164 162.26 151.574 162.26C150.984 162.26 150.514 161.79 150.514 161.2C150.514 160.61 150.984 160.14 151.574 160.14ZM158.074 165V157.66H160.174C161.814 157.66 162.914 158.22 162.914 159.82C162.914 161.37 161.824 162.09 160.214 162.09H159.004V165H158.074ZM159.004 161.34H160.094C161.384 161.34 161.994 160.87 161.994 159.82C161.994 158.76 161.344 158.42 160.054 158.42H159.004V161.34ZM164.893 165V157.66H165.853L168.523 162.29L169.303 163.8H169.353C169.303 163.06 169.233 162.24 169.233 161.48V157.66H170.113V165H169.163L166.493 160.37L165.703 158.86H165.663C165.703 159.6 165.773 160.38 165.773 161.15V165H164.893ZM175.489 165.13C173.569 165.13 172.189 163.72 172.189 161.34C172.189 158.97 173.609 157.53 175.549 157.53C176.569 157.53 177.239 157.99 177.659 158.44L177.159 159.04C176.789 158.65 176.319 158.34 175.569 158.34C174.099 158.34 173.139 159.48 173.139 161.31C173.139 163.16 174.009 164.32 175.589 164.32C176.109 164.32 176.619 164.16 176.909 163.89V161.97H175.359V161.2H177.759V164.28C177.289 164.77 176.479 165.13 175.489 165.13ZM184.004 160.14C184.594 160.14 185.064 160.61 185.064 161.2C185.064 161.79 184.594 162.26 184.004 162.26C183.414 162.26 182.944 161.79 182.944 161.2C182.944 160.61 183.414 160.14 184.004 160.14ZM193.384 165.13C191.464 165.13 190.084 163.72 190.084 161.34C190.084 158.97 191.504 157.53 193.444 157.53C194.464 157.53 195.134 157.99 195.554 158.44L195.054 159.04C194.684 158.65 194.214 158.34 193.464 158.34C191.994 158.34 191.034 159.48 191.034 161.31C191.034 163.16 191.904 164.32 193.484 164.32C194.004 164.32 194.514 164.16 194.804 163.89V161.97H193.254V161.2H195.654V164.28C195.184 164.77 194.374 165.13 193.384 165.13ZM197.898 165V157.66H198.828V165H197.898ZM201.328 165V157.66H205.558V158.45H202.258V160.93H205.058V161.71H202.258V165H201.328Z" fill="#71767F"/>
</svg>
