<svg width="18" height="18" viewBox="0 0 18 18" fill="none" xmlns="http://www.w3.org/2000/svg">
<mask id="mask0_990_1986" style="mask-type:alpha" maskUnits="userSpaceOnUse" x="0" y="0" width="18" height="18">
<rect width="18" height="18" fill="#D9D9D9"/>
</mask>
<g mask="url(#mask0_990_1986)">
<path d="M7.26928 16.125L6.9837 13.8404C6.78274 13.773 6.57672 13.6788 6.36566 13.5577C6.1546 13.4365 5.96589 13.3067 5.79954 13.1682L3.68368 14.0624L1.95294 11.0625L3.78322 9.67931C3.76591 9.56778 3.75365 9.45576 3.74644 9.34326C3.73922 9.23076 3.73562 9.11874 3.73562 9.0072C3.73562 8.90046 3.73922 8.79204 3.74644 8.68194C3.75365 8.57184 3.76591 8.45141 3.78322 8.32065L1.95294 6.93748L3.68368 3.95194L5.79232 4.83896C5.9731 4.69569 6.16613 4.56468 6.37142 4.44593C6.57672 4.32716 6.7784 4.23173 6.97648 4.15961L7.26928 1.875H10.7308L11.0163 4.16683C11.2413 4.24856 11.4449 4.34399 11.6272 4.45313C11.8094 4.56226 11.9933 4.69088 12.1789 4.83896L14.3164 3.95194L16.0471 6.93748L14.188 8.34227C14.2149 8.46343 14.2296 8.57666 14.232 8.68194C14.2344 8.78723 14.2356 8.89324 14.2356 8.99998C14.2356 9.10191 14.2332 9.20551 14.2284 9.3108C14.2235 9.41609 14.2062 9.53653 14.1764 9.67211L16.0211 11.0625L14.2904 14.0624L12.1789 13.161C11.9933 13.3091 11.8039 13.4401 11.6106 13.554C11.4173 13.668 11.2192 13.761 11.0163 13.8331L10.7308 16.125H7.26928ZM8.25002 15H9.72405L9.99377 12.9908C10.3765 12.8908 10.7262 12.7488 11.043 12.5646C11.3599 12.3805 11.6654 12.1437 11.9596 11.8543L13.8231 12.6375L14.5615 11.3625L12.9346 10.1365C12.9971 9.94229 13.0397 9.75191 13.0623 9.56537C13.0849 9.37883 13.0962 9.19037 13.0962 8.99998C13.0962 8.80479 13.0849 8.61633 13.0623 8.43459C13.0397 8.25287 12.9971 8.06729 12.9346 7.87787L14.576 6.63748L13.8375 5.36248L11.9524 6.1572C11.7015 5.88893 11.4007 5.65191 11.0503 5.44614C10.6998 5.24037 10.3452 5.09469 9.98655 5.00912L9.75002 2.99998H8.26155L8.01349 5.0019C7.63079 5.09229 7.27742 5.23075 6.95338 5.41729C6.62934 5.60383 6.32021 5.84421 6.02599 6.13845L4.16252 5.36248L3.42405 6.63748L5.04377 7.8447C4.98127 8.02258 4.93752 8.20767 4.91252 8.39998C4.88752 8.59229 4.87502 8.7947 4.87502 9.0072C4.87502 9.20239 4.88752 9.39373 4.91252 9.58123C4.93752 9.76873 4.97886 9.95383 5.03655 10.1365L3.42405 11.3625L4.16252 12.6375L6.01877 11.85C6.30338 12.1423 6.6077 12.3817 6.93174 12.5683C7.25578 12.7548 7.61395 12.8981 8.00627 12.9981L8.25002 15ZM9.00866 11.25C9.6327 11.25 10.1637 11.031 10.6017 10.593C11.0397 10.155 11.2586 9.62401 11.2586 8.99998C11.2586 8.37596 11.0397 7.84495 10.6017 7.40696C10.1637 6.96899 9.6327 6.75 9.00866 6.75C8.37695 6.75 7.84402 6.96899 7.40989 7.40696C6.97576 7.84495 6.7587 8.37596 6.7587 8.99998C6.7587 9.62401 6.97576 10.155 7.40989 10.593C7.84402 11.031 8.37695 11.25 9.00866 11.25Z" fill="#212531"/>
</g>
</svg>
